<?xml version="1.0" encoding="UTF-8" standalone="no"?>
<svg xmlns:dc="http://purl.org/dc/elements/1.1/"
  xmlns:cc="http://creativecommons.org/ns#"
  xmlns:rdf="http://www.w3.org/1999/02/22-rdf-syntax-ns#"
  xmlns:svg="http://www.w3.org/2000/svg"
  xmlns="http://www.w3.org/2000/svg"
  xmlns:sodipodi="http://sodipodi.sourceforge.net/DTD/sodipodi-0.dtd"
  xmlns:inkscape="http://www.inkscape.org/namespaces/inkscape" version="1.1" id="svg2" xml:space="preserve" width="1122.52" height="793.70135" viewBox="0 0 1122.52 793.70135" sodipodi:docname="logo code valley.ai">
  <metadata id="metadata8">
    <rdf:RDF>
      <cc:Work rdf:about="">
        <dc:format>image/svg+xml</dc:format>
        <dc:type rdf:resource="http://purl.org/dc/dcmitype/StillImage" />
      </cc:Work>
    </rdf:RDF>
  </metadata>
  <defs id="defs6">
  <filter id="dropshadow" height="130%">
    <feGaussianBlur in="SourceAlpha" stdDeviation="3"/>
    <!-- stdDeviation is how much to blur -->
    <feOffset dx="2" dy="2" result="offsetblur"/>
    <!-- how much to offset -->
    <feComponentTransfer>
      <feFuncA type="linear" slope="0.5"/>
      <!-- slope is the opacity of the shadow -->
    </feComponentTransfer>
    <feMerge>
      <feMergeNode/>
      <!-- this contains the offset blurred image -->
      <feMergeNode in="SourceGraphic"/>
      <!-- this contains the element that the filter is applied to -->
    </feMerge>
  </filter>
  <circle r="10" style="filter:url(#dropshadow)"/>

    <clipPath clipPathUnits="userSpaceOnUse" id="clipPath18">
      <path d="M 0,595.276 H 841.89 V 0 H 0 Z" id="path16" />
    </clipPath>
    <clipPath clipPathUnits="userSpaceOnUse" id="clipPath26">
      <path d="m 409.564,254.965 h 42.901 v -5.932 h -42.901 z" id="path24" />
    </clipPath>
    <clipPath clipPathUnits="userSpaceOnUse" id="clipPath42">
      <path d="M 164.52,265.74 H 518.812 V 196.742 H 164.52 Z" id="path40" />
    </clipPath>
    <clipPath clipPathUnits="userSpaceOnUse" id="clipPath58">
      <path d="m 379.128,114.671 h 42.901 v -5.931 h -42.901 z" id="path56" />
    </clipPath>
    <clipPath clipPathUnits="userSpaceOnUse" id="clipPath78">
      <path d="M 0,595.276 H 841.89 V 0 H 0 Z" id="path76" />
    </clipPath>
    <clipPath clipPathUnits="userSpaceOnUse" id="clipPath162">
      <path d="m 164.52,197.74 h 268.292 v -19 H 164.52 Z" id="path160" />
    </clipPath>
    <clipPath clipPathUnits="userSpaceOnUse" id="clipPath184">
      <path d="m 204.808,299.548 h 48.87 V 196.742 h -48.87 z" id="path182" />
    </clipPath>
    <clipPath clipPathUnits="userSpaceOnUse" id="clipPath204">
      <path d="m 295.706,265.67 h 48.617 v -68.928 h -48.617 z" id="path202" />
    </clipPath>
    <clipPath clipPathUnits="userSpaceOnUse" id="clipPath348">
      <path d="m 405.013,181.174 h 2.925 l 1.712,7.121 -2.034,0.292 z" id="path346" />
    </clipPath>
    <linearGradient x1="0" y1="0" x2="1" y2="0" gradientUnits="userSpaceOnUse" gradientTransform="matrix(0,-30.842558,-30.842558,0,407.33145,206.85304)" spreadMethod="pad" id="linearGradient364">
      <stop style="stop-opacity:0.8;stop-color:#ffffff" offset="0" id="stop358" />
      <stop style="stop-opacity:0;stop-color:#ffffff" offset="0.989629" id="stop360" />
      <stop style="stop-opacity:0;stop-color:#ffffff" offset="1" id="stop362" />
    </linearGradient>
    <mask maskUnits="userSpaceOnUse" x="0" y="0" width="1" height="1" id="mask366">
      <g id="g376">
        <g id="g374">
          <g id="g372">
            <g id="g370">
              <path d="M -32768,32767 H 32767 V -32768 H -32768 Z" style="fill:url(#linearGradient364);stroke:none" id="path368" />
            </g>
          </g>
        </g>
      </g>
    </mask>
    <linearGradient x1="0" y1="0" x2="1" y2="0" gradientUnits="userSpaceOnUse" gradientTransform="matrix(0,-30.842558,-30.842558,0,407.33145,206.85304)" spreadMethod="pad" id="linearGradient388">
      <stop style="stop-opacity:1;stop-color:#2989c4" offset="0" id="stop382" />
      <stop style="stop-opacity:1;stop-color:#2989c4" offset="0.989629" id="stop384" />
      <stop style="stop-opacity:1;stop-color:#2989c4" offset="1" id="stop386" />
    </linearGradient>
    <clipPath clipPathUnits="userSpaceOnUse" id="clipPath398">
      <path d="m 386.115,188.587 0.867,-7.413 h 2.856 l -1.689,7.704 z" id="path396" />
    </clipPath>
    <linearGradient x1="0" y1="0" x2="1" y2="0" gradientUnits="userSpaceOnUse" gradientTransform="matrix(0,-30.842613,-30.842613,0,387.97653,206.8531)" spreadMethod="pad" id="linearGradient414">
      <stop style="stop-opacity:0.8;stop-color:#ffffff" offset="0" id="stop408" />
      <stop style="stop-opacity:0;stop-color:#ffffff" offset="0.989629" id="stop410" />
      <stop style="stop-opacity:0;stop-color:#ffffff" offset="1" id="stop412" />
    </linearGradient>
    <mask maskUnits="userSpaceOnUse" x="0" y="0" width="1" height="1" id="mask416">
      <g id="g426">
        <g id="g424">
          <g id="g422">
            <g id="g420">
              <path d="M -32768,32767 H 32767 V -32768 H -32768 Z" style="fill:url(#linearGradient414);stroke:none" id="path418" />
            </g>
          </g>
        </g>
      </g>
    </mask>
    <linearGradient x1="0" y1="0" x2="1" y2="0" gradientUnits="userSpaceOnUse" gradientTransform="matrix(0,-30.842613,-30.842613,0,387.97653,206.8531)" spreadMethod="pad" id="linearGradient438">
      <stop style="stop-opacity:1;stop-color:#2989c4" offset="0" id="stop432" />
      <stop style="stop-opacity:1;stop-color:#2989c4" offset="0.989629" id="stop434" />
      <stop style="stop-opacity:1;stop-color:#2989c4" offset="1" id="stop436" />
    </linearGradient>
    <clipPath clipPathUnits="userSpaceOnUse" id="clipPath448">
      <path d="M 0,595.276 H 841.89 V 0 H 0 Z" id="path446" />
    </clipPath>
    <clipPath clipPathUnits="userSpaceOnUse" id="clipPath506">
      <path d="M 83.9101,201.361 H 174.976 V 188.77 H 83.9101 Z" id="path504" />
    </clipPath>
    <clipPath clipPathUnits="userSpaceOnUse" id="clipPath522">
      <path d="M 197.596,434.49 H 339.978 V 265.681 H 197.596 Z" id="path520" />
    </clipPath>
    <clipPath clipPathUnits="userSpaceOnUse" id="clipPath726">
      <path d="m 447.361,259.007 h 42.902 v -5.932 h -42.902 z" id="path724" />
    </clipPath>
    <clipPath clipPathUnits="userSpaceOnUse" id="clipPath778">
      <path d="m 462.099,280.003 c 1.588,-0.849 3.139,-1.646 4.279,-2.225 v 0 l 2.683,7.442 0.251,2.364 -3.501,9.051 z" id="path776" />
    </clipPath>
    <linearGradient x1="0" y1="0" x2="1" y2="0" gradientUnits="userSpaceOnUse" gradientTransform="matrix(-10.882565,-13.715031,-13.715031,10.882565,472.72507,295.56259)" spreadMethod="pad" id="linearGradient794">
      <stop style="stop-opacity:0.8;stop-color:#ffffff" offset="0" id="stop788" />
      <stop style="stop-opacity:0;stop-color:#ffffff" offset="0.989629" id="stop790" />
      <stop style="stop-opacity:0;stop-color:#ffffff" offset="1" id="stop792" />
    </linearGradient>
    <mask maskUnits="userSpaceOnUse" x="0" y="0" width="1" height="1" id="mask796">
      <g id="g806">
        <g id="g804">
          <g id="g802">
            <g id="g800">
              <path d="M -32768,32767 H 32767 V -32768 H -32768 Z" style="fill:url(#linearGradient794);stroke:none" id="path798" />
            </g>
          </g>
        </g>
      </g>
    </mask>
    <linearGradient x1="0" y1="0" x2="1" y2="0" gradientUnits="userSpaceOnUse" gradientTransform="matrix(-10.882565,-13.715031,-13.715031,10.882565,472.72507,295.56259)" spreadMethod="pad" id="linearGradient818">
      <stop style="stop-opacity:1;stop-color:#2989c4" offset="0" id="stop812" />
      <stop style="stop-opacity:1;stop-color:#2989c4" offset="0.989629" id="stop814" />
      <stop style="stop-opacity:1;stop-color:#2989c4" offset="1" id="stop816" />
    </linearGradient>
    <clipPath clipPathUnits="userSpaceOnUse" id="clipPath828">
      <path d="M 0,595.276 H 841.89 V 0 H 0 Z" id="path826" />
    </clipPath>
    <clipPath clipPathUnits="userSpaceOnUse" id="clipPath840">
      <path d="M 84.8713,156.991 H 246.847 V 139.477 H 84.8713 Z" id="path838" />
    </clipPath>
    <clipPath clipPathUnits="userSpaceOnUse" id="clipPath856">
      <path d="M 105.668,127.065 H 267.644 V 109.55 H 105.668 Z" id="path854" />
    </clipPath>
    <clipPath clipPathUnits="userSpaceOnUse" id="clipPath872">
      <path d="m 195.361,177.671 h 42.901 v -5.931 h -42.901 z" id="path870" />
    </clipPath>
    <clipPath clipPathUnits="userSpaceOnUse" id="clipPath888">
      <path d="m 261.213,129.671 h 42.902 v -5.931 h -42.902 z" id="path886" />
    </clipPath>
    <clipPath clipPathUnits="userSpaceOnUse" id="clipPath980">
      <path d="m 276.651,157.472 c -0.107,-0.322 -0.661,-1.96 -1.238,-3.674 v 0 l 3.542,-6.85 1.792,10.049 -0.281,0.867 -2.219,3.472 -0.435,0.083 c 0,0 -0.929,-3.249 -1.161,-3.947" id="path978" />
    </clipPath>
    <linearGradient x1="0" y1="0" x2="1" y2="0" gradientUnits="userSpaceOnUse" gradientTransform="matrix(5.3336,0,0,-5.3336,275.41299,154.18449)" spreadMethod="pad" id="linearGradient996">
      <stop style="stop-opacity:0.8;stop-color:#ffffff" offset="0" id="stop990" />
      <stop style="stop-opacity:0;stop-color:#ffffff" offset="0.989629" id="stop992" />
      <stop style="stop-opacity:0;stop-color:#ffffff" offset="1" id="stop994" />
    </linearGradient>
    <mask maskUnits="userSpaceOnUse" x="0" y="0" width="1" height="1" id="mask998">
      <g id="g1008">
        <g id="g1006">
          <g id="g1004">
            <g id="g1002">
              <path d="M -32768,32767 H 32767 V -32768 H -32768 Z" style="fill:url(#linearGradient996);stroke:none" id="path1000" />
            </g>
          </g>
        </g>
      </g>
    </mask>
    <linearGradient x1="0" y1="0" x2="1" y2="0" gradientUnits="userSpaceOnUse" gradientTransform="matrix(5.3336,0,0,-5.3336,275.41299,154.18449)" spreadMethod="pad" id="linearGradient1020">
      <stop style="stop-opacity:1;stop-color:#2989c4" offset="0" id="stop1014" />
      <stop style="stop-opacity:1;stop-color:#2989c4" offset="0.989629" id="stop1016" />
      <stop style="stop-opacity:1;stop-color:#2989c4" offset="1" id="stop1018" />
    </linearGradient>
    <clipPath clipPathUnits="userSpaceOnUse" id="clipPath1030">
      <path d="M 0,595.276 H 841.89 V 0 H 0 Z" id="path1028" />
    </clipPath>
    <clipPath clipPathUnits="userSpaceOnUse" id="clipPath1090">
      <path d="M 0,595.276 H 841.89 V 0 H 0 Z" id="path1088" />
    </clipPath>
    <clipPath clipPathUnits="userSpaceOnUse" id="clipPath1114">
      <path d="M 0,595.276 H 841.89 V 0 H 0 Z" id="path1112" />
    </clipPath>
    <clipPath clipPathUnits="userSpaceOnUse" id="clipPath1142">
      <path d="M 0,595.276 H 841.89 V 0 H 0 Z" id="path1140" />
    </clipPath>
  </defs>
  <sodipodi:namedview pagecolor="#ffffff" bordercolor="#666666" borderopacity="1" objecttolerance="10" gridtolerance="10" guidetolerance="10" inkscape:pageopacity="0" inkscape:pageshadow="2" inkscape:window-width="640" inkscape:window-height="480" id="namedview4" />
  <g id="g10" inkscape:groupmode="layer" inkscape:label="logo code valley" transform="matrix(1.3333333,0,0,-1.3333333,0,793.70133)">
    <g id="g12">
      <g id="g14" clip-path="url(#clipPath18)">
        <g id="g20">
          <g id="g22" />
          <g id="g34">
            <g clip-path="url(#clipPath26)" opacity="0.259995" id="g32">
              <g transform="translate(452.4658,251.9987)" id="g30">
                <path d="m 0,0 c 0,-1.638 -9.604,-2.966 -21.451,-2.966 -11.847,0 -21.451,1.328 -21.451,2.966 0,1.639 9.604,2.966 21.451,2.966 C -9.604,2.966 0,1.639 0,0" style="fill:#298ab1;fill-opacity:1;fill-rule:nonzero;stroke:none" id="path28" />
              </g>
            </g>
          </g>
        </g>
        <g id="g36">
          <g id="g38" />
          <g id="g50">
            <g clip-path="url(#clipPath42)" opacity="0.259995" id="g48">
              <g transform="translate(164.5205,196.7418)" id="g46">
                <path d="m 0,0 194.291,68.998 160,-2 L 216.58,0 Z" style="fill:#298ab1;fill-opacity:1;fill-rule:nonzero;stroke:none" id="path44" />
              </g>
            </g>
          </g>
        </g>
        <g id="g52">
          <g id="g54" />
          <g id="g66">
            <g clip-path="url(#clipPath58)" opacity="0.259995" id="g64">
              <g transform="translate(379.1279,111.7057)" id="g62">
                <path d="m 0,0 c 0,-1.638 9.604,-2.966 21.451,-2.966 11.847,0 21.45,1.328 21.45,2.966 0,1.638 -9.603,2.966 -21.45,2.966 C 9.604,2.966 0,1.638 0,0" style="fill:#298ab1;fill-opacity:1;fill-rule:nonzero;stroke:none" id="path60" />
              </g>
            </g>
          </g>
        </g>
      </g>
    </g>
    <path d="m 432.301,328.977 h -39.652 v 50.62 h 39.652 z" style="fill:#2989c4;fill-opacity:1;fill-rule:nonzero;stroke:none" id="path68" />
    <path d="m 430.371,328.977 h -39.652 v 50.62 h 39.652 z" style="fill:#298ab1;fill-opacity:1;fill-rule:nonzero;stroke:none" id="path70" />
    <g id="g72">
      <g id="g74" clip-path="url(#clipPath78)">
        <g id="g80" transform="translate(398.9995,374.1886)">
          <path d="M 0,0 0.633,0.269 C 0.866,0.364 1.068,0.442 1.254,0.507 1.731,0.131 1.653,0.078 1.779,-0.364 l -5.187,-2.369 v -0.012 l 2.238,-1.021 c 1.117,-0.513 2.095,-0.967 2.943,-1.337 -0.126,-0.459 -0.024,-0.495 -0.525,-0.889 -0.281,0.096 -0.532,0.203 -0.752,0.305 -1.48,0.674 -3.391,1.533 -5.748,2.62 v 0.352 c 0,0.041 0.078,0.095 0.245,0.167 -0.065,-0.024 -0.126,-0.042 -0.185,-0.066 v 0.077 c 0,0.072 0.011,0.15 0.102,0.204 z" style="fill:#ffffff;fill-opacity:1;fill-rule:nonzero;stroke:none" id="path82" />
        </g>
        <g id="g84" transform="translate(398.9995,340.399)">
          <path d="M 0,0 0.633,0.269 C 0.866,0.364 1.068,0.442 1.254,0.507 1.731,0.131 1.653,0.078 1.779,-0.364 l -5.187,-2.369 v -0.012 l 2.238,-1.021 c 1.117,-0.513 2.095,-0.966 2.943,-1.337 -0.126,-0.459 -0.024,-0.495 -0.525,-0.889 -0.281,0.096 -0.532,0.203 -0.752,0.305 -1.48,0.674 -3.391,1.533 -5.748,2.62 v 0.352 c 0,0.042 0.078,0.095 0.245,0.167 -0.065,-0.024 -0.126,-0.042 -0.185,-0.066 v 0.078 c 0,0.071 0.011,0.149 0.102,0.203 z" style="fill:#ffffff;fill-opacity:1;fill-rule:nonzero;stroke:none" id="path86" />
        </g>
        <path d="m 426.309,370.596 h -20.167 v 2.123 h 20.167 z" style="fill:#ffffff;fill-opacity:1;fill-rule:nonzero;stroke:none" id="path88" />
        <path d="m 426.309,363.166 h -15.664 v 2.123 h 15.664 z" style="fill:#ffffff;fill-opacity:1;fill-rule:nonzero;stroke:none" id="path90" />
        <path d="m 426.309,356.797 h -8.587 v 2.123 h 8.587 z" style="fill:#ffffff;fill-opacity:1;fill-rule:nonzero;stroke:none" id="path92" />
        <path d="m 426.309,338.929 h -20.167 v -2.123 h 20.167 z" style="fill:#ffffff;fill-opacity:1;fill-rule:nonzero;stroke:none" id="path94" />
        <path d="m 426.309,346.359 h -15.664 v -2.123 h 15.664 z" style="fill:#ffffff;fill-opacity:1;fill-rule:nonzero;stroke:none" id="path96" />
        <path d="m 426.309,352.728 h -8.587 v -2.123 h 8.587 z" style="fill:#ffffff;fill-opacity:1;fill-rule:nonzero;stroke:none" id="path98" />
        <g id="g100" transform="translate(403.5737,341.3566)">
          <path d="m 0,0 -2.1,-7.564 1.509,-0.121 2.099,7.564 z" style="fill:#ffffff;fill-opacity:1;fill-rule:nonzero;stroke:none" id="path102" />
        </g>
        <g id="g104" transform="translate(417.1812,323.8195)">
          <path d="m 0,0 0.792,-6.728 4.739,-12.304 -4.334,-1.334 -3.333,12.834 -0.437,7.235 z" style="fill:#f4f4f5;fill-opacity:1;fill-rule:nonzero;stroke:none" id="path106" />
        </g>
        <g id="g108" transform="translate(427.3086,291.2848)">
          <path d="m 0,0 -2.118,-21.412 0.706,-18.823 h -7.294 l -0.392,1.401 5,0.667 -2.667,16.667 -2.405,20.727 z" style="fill:#2e2b7c;fill-opacity:1;fill-rule:nonzero;stroke:none" id="path110" />
        </g>
        <g id="g112" transform="translate(429.7178,291.524)">
          <path d="m 0,0 1.659,-18.239 11.167,-14.834 -1.333,-7 H 8.159 l 2,1.5 0.334,4.5 -10.667,12 -9.667,21.501 z" style="fill:#2989c4;fill-opacity:1;fill-rule:nonzero;stroke:none" id="path114" />
        </g>
        <g id="g116" transform="translate(409.6611,320.9498)">
          <path d="m 0,0 2.329,-0.77 c 0.947,-2.744 2.525,-5.226 4.607,-7.249 l 4.358,-4.234 5.367,-3.625 3.986,-14.787 -12.47,-1.177 -0.412,16.294 -4.63,5.788 c -1.904,2.38 -3.192,5.191 -3.751,8.187 z" style="fill:#ffffff;fill-opacity:1;fill-rule:nonzero;stroke:none" id="path118" />
        </g>
        <g id="g120" transform="translate(412.2339,319.3668)">
          <path d="m 0,0 -3.067,-1.088 -1.979,10.389 0.594,0.882 z" style="fill:#fbcfd3;fill-opacity:1;fill-rule:nonzero;stroke:none" id="path122" />
        </g>
        <g id="g124" transform="translate(412.9263,319.5646)">
          <path d="m 0,0 -3.858,-1.88 c 0,0 -0.792,0.693 -0.693,1.088 0.099,0.396 0.297,0.693 0.593,0.891 0.297,0.198 3.266,1.286 3.266,1.286 z" style="fill:#2989c4;fill-opacity:1;fill-rule:nonzero;stroke:none" id="path126" />
        </g>
        <g id="g128" transform="translate(414.6084,323.5226)">
          <path d="M 0,0 -0.198,5.541 H 1.979 L 2.573,0.297 Z" style="fill:#fbcfd3;fill-opacity:1;fill-rule:nonzero;stroke:none" id="path130" />
        </g>
        <g id="g132" transform="translate(409.6357,329.1705)">
          <path d="m 0,0 c -0.03,0.02 -1.394,0.77 -1.423,0.868 -0.03,0.097 -0.994,2.426 -0.994,2.426 l -1.389,-0.196 0.396,-3.826 1.913,-0.461 z" style="fill:#fbcfd3;fill-opacity:1;fill-rule:nonzero;stroke:none" id="path134" />
        </g>
        <g id="g136" transform="translate(429.6514,311.568)">
          <path d="m 0,0 c -0.93,-2.131 -3.942,-4.323 -6.073,-3.394 -2.132,0.93 -2.573,4.63 -1.644,6.761 0.93,2.131 3.411,3.105 5.542,2.175 C -0.044,4.612 0.93,2.131 0,0" style="fill:#fbcfd3;fill-opacity:1;fill-rule:nonzero;stroke:none" id="path138" />
        </g>
        <g id="g140" transform="translate(423.2979,316.235)">
          <path d="M 0,0 C -0.369,0.262 -0.752,0.504 -1.147,0.725 -1.432,0.882 -1.879,0.979 -2.005,0.68 -2.067,0.532 -2.002,0.364 -1.938,0.217 c 0.216,-0.493 0.452,-1.01 0.893,-1.319 0.372,-0.259 0.867,-0.332 1.298,-0.191 0.389,0.126 0.769,0.422 0.809,0.823 C 0.672,-0.394 0.327,-0.232 0,0" style="fill:#fbcfd3;fill-opacity:1;fill-rule:nonzero;stroke:none" id="path142" />
        </g>
        <g id="g144" transform="translate(424.0518,308.0255)">
          <path d="M 0,0 C 2.081,-0.461 4.737,1.565 5.6,3.542 6.529,5.673 5.556,8.155 3.425,9.084 3.296,9.14 3.163,9.167 3.033,9.21 2.789,8.951 2.592,8.645 2.504,8.353 2.161,7.215 2.421,5.87 3.141,4.924 3.141,4.924 0.73,0.38 0,0" style="fill:#2e2b7c;fill-opacity:1;fill-rule:nonzero;stroke:none" id="path146" />
        </g>
        <g id="g148" transform="translate(427.4736,312.2672)">
          <path d="m 0,0 c 0.31,-0.161 0.549,-0.44 0.698,-0.756 0.485,-1.015 -0.665,-2.012 -1.646,-1.88 -0.317,0.043 -0.618,0.17 -0.894,0.332 -0.238,0.14 -0.471,0.32 -0.578,0.575 -0.103,0.248 -0.07,0.537 0.042,0.78 0.112,0.243 0.297,0.447 0.497,0.624 C -1.425,0.082 -0.561,0.292 0,0" style="fill:#fbcfd3;fill-opacity:1;fill-rule:nonzero;stroke:none" id="path150" />
        </g>
        <g id="g152" transform="translate(425.248,315.5773)">
          <path d="M 0,0 C -0.739,-0.492 -1.64,-0.438 -2.012,0.12 -2.383,0.678 -2.084,1.53 -1.345,2.022 -0.604,2.514 0.296,2.46 0.667,1.902 1.039,1.344 0.74,0.492 0,0" style="fill:#ffffff;fill-opacity:1;fill-rule:nonzero;stroke:none" id="path154" />
        </g>
        <g id="g156">
          <g id="g158" />
          <g id="g170">
            <g clip-path="url(#clipPath162)" opacity="0.259995" id="g168">
              <g transform="translate(432.8115,197.7399)" id="g166">
                <path d="m 0,0 -51.711,-0.998 h -216.58 l 100.169,-8.004 c -7.119,-1.062 -11.477,-2.483 -11.477,-4.045 0,-3.288 19.278,-5.953 43.057,-5.953 19.335,0 35.692,1.762 41.132,4.187 L -43,-19 Z" style="fill:#298ab1;fill-opacity:1;fill-rule:nonzero;stroke:none" id="path164" />
              </g>
            </g>
          </g>
        </g>
        <path d="M 381.1,196.742 H 169.935 V 418.74 H 381.1 Z" style="fill:#2989c4;fill-opacity:1;fill-rule:nonzero;stroke:none" id="path172" />
        <path d="M 375.685,196.742 H 164.52 V 418.74 h 211.165 z" style="fill:#ffffff;fill-opacity:1;fill-rule:nonzero;stroke:none" id="path174" />
        <path d="M 375.685,401.449 H 164.52 v 17.291 h 211.165 z" style="fill:#63bddd;fill-opacity:1;fill-rule:nonzero;stroke:none" id="path176" />
        <g id="g178">
          <g id="g180" />
          <g id="g196">
            <g clip-path="url(#clipPath184)" opacity="0.199997" id="g194">
              <g transform="translate(229.1304,249.1559)" id="g188">
                <path d="m 0,0 c -0.273,0.075 -0.547,0.111 -0.819,0.124 -0.059,0.003 -0.117,-0.006 -0.176,-0.006 -0.22,0 -0.438,-0.014 -0.651,-0.053 -0.042,-0.007 -0.083,-0.02 -0.124,-0.029 -0.236,-0.05 -0.463,-0.121 -0.684,-0.215 -0.015,-0.007 -0.03,-0.013 -0.045,-0.02 -1.003,-0.441 -1.813,-1.298 -2.126,-2.438 -0.548,-2.005 0.318,-5.221 2.323,-5.77 0.931,-0.255 1.943,0.114 2.816,0.78 0,0 0.001,10e-4 0.002,10e-4 0.331,0.253 0.641,0.546 0.92,0.867 0.01,0.013 0.02,0.026 0.03,0.037 0.121,0.142 0.236,0.288 0.343,0.438 0.017,0.023 0.034,0.045 0.05,0.068 0.112,0.161 0.216,0.324 0.31,0.49 0.013,0.022 0.022,0.043 0.035,0.065 0.077,0.14 0.146,0.282 0.208,0.424 0.019,0.043 0.037,0.085 0.055,0.128 0.066,0.162 0.125,0.324 0.169,0.484 0.137,0.502 0.167,1.007 0.102,1.491 C 2.543,-1.68 1.504,-0.412 0,0" style="fill:#2989c4;fill-opacity:1;fill-rule:nonzero;stroke:none" id="path186" />
              </g>
              <g transform="translate(220.3618,261.8141)" id="g192">
                <path d="m 0,0 h 16.958 v -0.002 c 0,-0.731 0.452,-1.355 1.09,-1.614 l -7.192,-20.468 -7.263,0.581 -4.495,20.507 C -0.481,-0.8 -0.156,-0.441 0,0 m -2.945,-0.562 -0.145,-0.021 2.615,-22.373 2.034,-20.92 1.727,-21.196 h 3.027 l 0.799,21.432 1.982,0.085 1.274,-21.517 h 3.479 l 1.368,21.777 -0.291,19.468 5.521,22.953 -0.224,0.032 c 0.138,0.25 0.224,0.534 0.224,0.84 0,0.001 -0.001,0.001 -0.001,0.002 h 12.872 v 37.733 h -48.87 V 0 h 12.28 c 0.074,-0.209 0.186,-0.398 0.329,-0.562" style="fill:#2989c4;fill-opacity:1;fill-rule:nonzero;stroke:none" id="path190" />
              </g>
            </g>
          </g>
        </g>
        <g id="g198">
          <g id="g200" />
          <g id="g212">
            <g clip-path="url(#clipPath204)" opacity="0.199997" id="g210">
              <g transform="translate(307.9702,262.6696)" id="g208">
                <path d="M 0,0 2.447,-14.721 H -2.739 L -0.292,0 Z M 23.074,0 20.627,-14.721 H 3.46 L 1.014,0 Z m 1.307,0 2.447,-14.721 H 21.641 L 24.087,0 Z m 4.22,-25.388 h -8.733 l 1.607,9.667 h 5.519 z m 1.773,-10.666 H 18.095 l 1.607,9.666 h 9.065 z M 32.146,-46.72 H 16.322 l 1.607,9.666 H 30.54 Z m 1.773,-10.667 h -19.37 l 1.607,9.667 h 16.157 z m -20.383,0 h -2.983 l -1.607,9.667 h 6.197 z m -23.367,0 1.607,9.667 H 7.932 l 1.607,-9.667 z m 3.38,20.333 H 6.159 L 7.766,-46.72 H -8.058 Z m 1.773,10.666 h 9.064 l 1.607,-9.666 H -6.285 Z m 9.912,1 -1.607,9.667 h 16.834 l -1.607,-9.667 z M 16.915,-37.054 15.309,-46.72 H 8.78 l -1.607,9.666 z m -9.908,1 -1.607,9.666 h 13.288 l -1.606,-9.666 z m -9.912,20.333 h 5.518 l 1.607,-9.667 h -8.732 z m -9.359,-50.207 h 1.014 l 1.253,7.541 H 9.705 l 1.254,-7.541 h 1.014 l -1.254,7.541 h 2.651 l -1.254,-7.541 h 1.013 l 1.254,7.541 h 19.702 l 1.254,-7.541 h 1.014 L 25.395,0 h 2.109 v 3 h -30 V 0 h 1.19 z" style="fill:#2989c4;fill-opacity:1;fill-rule:nonzero;stroke:none" id="path206" />
              </g>
            </g>
          </g>
        </g>
        <path d="M 491.301,332.977 H 451.649 V 433.6 h 39.652 z" style="fill:#2989c4;fill-opacity:1;fill-rule:nonzero;stroke:none" id="path214" />
        <path d="M 489.371,332.977 H 449.719 V 433.6 h 39.652 z" style="fill:#298ab1;fill-opacity:1;fill-rule:nonzero;stroke:none" id="path216" />
        <g id="g218" transform="translate(459.0547,428.5367)">
          <path d="M 0,0 0.634,0.269 C 0.866,0.364 1.068,0.442 1.254,0.507 1.731,0.131 1.653,0.078 1.779,-0.364 l -5.186,-2.369 v -0.012 l 2.237,-1.021 c 1.117,-0.513 2.096,-0.966 2.943,-1.337 -0.126,-0.459 -0.024,-0.495 -0.525,-0.889 -0.28,0.096 -0.531,0.203 -0.752,0.305 -1.48,0.674 -3.39,1.533 -5.748,2.62 v 0.352 c 0,0.041 0.078,0.095 0.245,0.167 -0.065,-0.024 -0.126,-0.042 -0.184,-0.066 v 0.078 c 0,0.071 0.01,0.149 0.101,0.203 z" style="fill:#ffffff;fill-opacity:1;fill-rule:nonzero;stroke:none" id="path220" />
        </g>
        <g id="g222" transform="translate(459.0547,394.7477)">
          <path d="m 0,0 0.634,0.269 c 0.232,0.095 0.434,0.172 0.62,0.238 0.477,-0.376 0.399,-0.43 0.525,-0.871 l -5.186,-2.37 v -0.012 l 2.237,-1.02 c 1.117,-0.513 2.096,-0.967 2.943,-1.337 -0.126,-0.459 -0.024,-0.496 -0.525,-0.889 -0.28,0.095 -0.531,0.202 -0.752,0.304 -1.48,0.674 -3.39,1.534 -5.748,2.62 v 0.352 c 0,0.042 0.078,0.096 0.245,0.167 -0.065,-0.023 -0.126,-0.041 -0.184,-0.065 v 0.077 c 0,0.072 0.01,0.149 0.101,0.203 z" style="fill:#ffffff;fill-opacity:1;fill-rule:nonzero;stroke:none" id="path224" />
        </g>
        <path d="m 486.364,424.944 h -20.168 v 2.123 h 20.168 z" style="fill:#ffffff;fill-opacity:1;fill-rule:nonzero;stroke:none" id="path226" />
        <path d="M 486.364,417.514 H 470.7 v 2.123 h 15.664 z" style="fill:#ffffff;fill-opacity:1;fill-rule:nonzero;stroke:none" id="path228" />
        <path d="m 486.364,411.145 h -8.588 v 2.123 h 8.588 z" style="fill:#ffffff;fill-opacity:1;fill-rule:nonzero;stroke:none" id="path230" />
        <path d="m 486.364,393.277 h -20.168 v -2.123 h 20.168 z" style="fill:#ffffff;fill-opacity:1;fill-rule:nonzero;stroke:none" id="path232" />
        <path d="M 486.364,400.707 H 470.7 v -2.123 h 15.664 z" style="fill:#ffffff;fill-opacity:1;fill-rule:nonzero;stroke:none" id="path234" />
        <path d="m 486.364,407.076 h -8.588 v -2.123 h 8.588 z" style="fill:#ffffff;fill-opacity:1;fill-rule:nonzero;stroke:none" id="path236" />
        <g id="g238" transform="translate(463.6289,395.7047)">
          <path d="m 0,0 -2.1,-7.564 1.508,-0.122 2.101,7.565 z" style="fill:#ffffff;fill-opacity:1;fill-rule:nonzero;stroke:none" id="path240" />
        </g>
        <g id="g242" transform="translate(459.0547,382.6212)">
          <path d="M 0,0 0.634,0.269 C 0.866,0.364 1.068,0.442 1.254,0.507 1.731,0.131 1.653,0.078 1.779,-0.364 l -5.186,-2.369 v -0.012 l 2.237,-1.021 c 1.117,-0.513 2.096,-0.966 2.943,-1.337 -0.126,-0.459 -0.024,-0.495 -0.525,-0.889 -0.28,0.096 -0.531,0.203 -0.752,0.305 -1.48,0.674 -3.39,1.533 -5.748,2.62 v 0.352 c 0,0.042 0.078,0.095 0.245,0.167 -0.065,-0.024 -0.126,-0.042 -0.184,-0.066 v 0.078 c 0,0.071 0.01,0.149 0.101,0.203 z" style="fill:#ffffff;fill-opacity:1;fill-rule:nonzero;stroke:none" id="path244" />
        </g>
        <g id="g246" transform="translate(459.0547,348.8322)">
          <path d="M 0,0 0.634,0.269 C 0.866,0.364 1.068,0.441 1.254,0.507 1.731,0.131 1.653,0.078 1.779,-0.364 l -5.186,-2.369 v -0.013 l 2.237,-1.02 c 1.117,-0.513 2.096,-0.967 2.943,-1.337 -0.126,-0.459 -0.024,-0.495 -0.525,-0.889 -0.28,0.095 -0.531,0.203 -0.752,0.304 -1.48,0.674 -3.39,1.534 -5.748,2.62 v 0.352 c 0,0.042 0.078,0.096 0.245,0.168 -0.065,-0.024 -0.126,-0.042 -0.184,-0.066 v 0.077 c 0,0.072 0.01,0.149 0.101,0.203 z" style="fill:#ffffff;fill-opacity:1;fill-rule:nonzero;stroke:none" id="path248" />
        </g>
        <path d="m 486.364,379.028 h -20.168 v 2.123 h 20.168 z" style="fill:#ffffff;fill-opacity:1;fill-rule:nonzero;stroke:none" id="path250" />
        <path d="M 486.364,371.598 H 470.7 v 2.123 h 15.664 z" style="fill:#ffffff;fill-opacity:1;fill-rule:nonzero;stroke:none" id="path252" />
        <path d="m 486.364,365.23 h -8.588 v 2.123 h 8.588 z" style="fill:#ffffff;fill-opacity:1;fill-rule:nonzero;stroke:none" id="path254" />
        <path d="m 486.364,347.362 h -20.168 v -2.123 h 20.168 z" style="fill:#ffffff;fill-opacity:1;fill-rule:nonzero;stroke:none" id="path256" />
        <path d="M 486.364,354.792 H 470.7 v -2.123 h 15.664 z" style="fill:#ffffff;fill-opacity:1;fill-rule:nonzero;stroke:none" id="path258" />
        <path d="m 486.364,361.161 h -8.588 v -2.123 h 8.588 z" style="fill:#ffffff;fill-opacity:1;fill-rule:nonzero;stroke:none" id="path260" />
        <g id="g262" transform="translate(463.6289,349.7892)">
          <path d="m 0,0 -2.1,-7.564 1.508,-0.121 2.101,7.564 z" style="fill:#ffffff;fill-opacity:1;fill-rule:nonzero;stroke:none" id="path264" />
        </g>
        <path d="m 238.678,251.813 h -48.871 v 37.733 h 48.871 z" style="fill:#63bddd;fill-opacity:1;fill-rule:nonzero;stroke:none" id="path266" />
        <g id="g268" transform="translate(321.332,184.4567)">
          <path d="m 0,0 -13.278,79.889 0.986,0.164 L 0.986,0.164 Z" style="fill:#2e2b7c;fill-opacity:1;fill-rule:nonzero;stroke:none" id="path270" />
        </g>
        <g id="g272" transform="translate(296.9517,184.4567)">
          <path d="m 0,0 -13.279,79.889 0.987,0.164 L 0.987,0.164 Z" style="fill:#2e2b7c;fill-opacity:1;fill-rule:nonzero;stroke:none" id="path274" />
        </g>
        <path d="m 311.593,246.949 h -24.597 v 1 h 24.597 z" style="fill:#2e2b7c;fill-opacity:1;fill-rule:nonzero;stroke:none" id="path276" />
        <path d="m 313.335,236.282 h -24.598 v 1 h 24.598 z" style="fill:#2e2b7c;fill-opacity:1;fill-rule:nonzero;stroke:none" id="path278" />
        <path d="M 315.077,225.616 H 290.48 v 1 h 24.597 z" style="fill:#2e2b7c;fill-opacity:1;fill-rule:nonzero;stroke:none" id="path280" />
        <path d="m 316.818,214.95 h -24.597 v 1 h 24.597 z" style="fill:#2e2b7c;fill-opacity:1;fill-rule:nonzero;stroke:none" id="path282" />
        <path d="m 318.56,204.283 h -24.598 v 1 h 24.598 z" style="fill:#2e2b7c;fill-opacity:1;fill-rule:nonzero;stroke:none" id="path284" />
        <path d="m 320.301,193.617 h -24.598 v 1 h 24.598 z" style="fill:#2e2b7c;fill-opacity:1;fill-rule:nonzero;stroke:none" id="path286" />
        <g id="g288" transform="translate(270.6587,184.4567)">
          <path d="m 0,0 -0.987,0.164 13.279,79.889 0.987,-0.164 z" style="fill:#2989c4;fill-opacity:1;fill-rule:nonzero;stroke:none" id="path290" />
        </g>
        <g id="g292" transform="translate(295.0386,184.4567)">
          <path d="m 0,0 -0.986,0.164 13.278,79.889 0.987,-0.164 z" style="fill:#2989c4;fill-opacity:1;fill-rule:nonzero;stroke:none" id="path294" />
        </g>
        <path d="m 304.994,246.949 h -24.597 v 1 h 24.597 z" style="fill:#2989c4;fill-opacity:1;fill-rule:nonzero;stroke:none" id="path296" />
        <path d="m 303.253,236.282 h -24.598 v 1 h 24.598 z" style="fill:#2989c4;fill-opacity:1;fill-rule:nonzero;stroke:none" id="path298" />
        <path d="m 301.512,225.616 h -24.598 v 1 h 24.598 z" style="fill:#2989c4;fill-opacity:1;fill-rule:nonzero;stroke:none" id="path300" />
        <path d="m 299.771,214.95 h -24.599 v 1 h 24.599 z" style="fill:#2989c4;fill-opacity:1;fill-rule:nonzero;stroke:none" id="path302" />
        <path d="M 298.028,204.283 H 273.43 v 1 h 24.598 z" style="fill:#2989c4;fill-opacity:1;fill-rule:nonzero;stroke:none" id="path304" />
        <path d="m 296.287,193.617 h -24.598 v 1 h 24.598 z" style="fill:#2989c4;fill-opacity:1;fill-rule:nonzero;stroke:none" id="path306" />
        <path d="m 311.455,262.67 h -30 v 3 h 30 z" style="fill:#63bddd;fill-opacity:1;fill-rule:nonzero;stroke:none" id="path308" />
        <g id="g310" transform="translate(390.7646,145.2936)">
          <path d="m 0,0 -2.034,20.92 -2.615,22.373 2.034,0.291 4.649,-21.211 7.263,-0.581 7.555,21.501 2.034,-0.291 -5.521,-22.953 0.291,-19.468 z" style="fill:#ffffff;fill-opacity:1;fill-rule:nonzero;stroke:none" id="path312" />
        </g>
        <g id="g314" transform="translate(393.3496,173.8746)">
          <path d="m 0,0 c -0.549,-2.005 0.317,-5.222 2.322,-5.771 2.005,-0.548 4.39,1.778 4.939,3.784 C 7.81,0.018 6.629,2.088 4.625,2.637 2.62,3.186 0.549,2.006 0,0" style="fill:#fbcfd3;fill-opacity:1;fill-rule:nonzero;stroke:none" id="path316" />
        </g>
        <g id="g318" transform="translate(396.0298,175.0328)">
          <path d="M 0,0 C -0.41,0.112 -0.984,0.394 -1.203,0.779 -1.223,0.815 -1.232,0.851 -1.245,0.886 -0.353,1.528 0.801,1.791 1.944,1.479 3.949,0.93 5.129,-1.141 4.581,-3.146 4.188,-4.577 2.86,-6.168 1.403,-6.764 1.429,-6.359 1.527,-5.959 1.631,-5.565 2.046,-3.98 2.509,-2.408 3.018,-0.85 1.992,-0.646 0.982,-0.361 0,0" style="fill:#342f8e;fill-opacity:1;fill-rule:nonzero;stroke:none" id="path320" />
        </g>
        <g id="g322" transform="translate(398.3726,171.9664)">
          <path d="M 0,0 C 0.272,0.199 0.644,0.289 0.953,0.156 1.025,0.125 1.092,0.083 1.147,0.028 1.297,-0.121 1.341,-0.35 1.323,-0.561 1.272,-1.143 0.794,-1.631 0.236,-1.804 0.078,-1.853 -0.091,-1.88 -0.254,-1.854 -0.418,-1.83 -0.578,-1.748 -0.673,-1.612 -1.024,-1.112 -0.391,-0.284 0,0" style="fill:#fbcfd3;fill-opacity:1;fill-rule:nonzero;stroke:none" id="path324" />
        </g>
        <g id="g326" transform="translate(404.4204,145.8746)">
          <path d="m 0,0 -2.016,-32.087 h -2.22 l -1.885,31.827 -1.982,-0.085 -1.212,-32.527 -1.713,0.04 -2.628,32.251 -0.386,3.974 13.994,-0.183 z" style="fill:#2989c4;fill-opacity:1;fill-rule:nonzero;stroke:none" id="path328" />
        </g>
        <g id="g330" transform="translate(402.4048,113.7877)">
          <path d="M 0,0 4.88,-0.538 4.704,-1.294 H -2.444 L -2.22,0 Z" style="fill:#2989c4;fill-opacity:1;fill-rule:nonzero;stroke:none" id="path332" />
        </g>
        <g id="g334" transform="translate(395.105,113.0026)">
          <path d="m 0,0 v -0.911 l -6.704,-0.254 v 0.839 l 4.992,0.366 z" style="fill:#2989c4;fill-opacity:1;fill-rule:nonzero;stroke:none" id="path336" />
        </g>
        <g id="g338" transform="translate(396.9468,171.1559)">
          <path d="M 0,0 C -1.221,-0.133 -2.192,1.099 -3.41,1.253 -3.486,1.263 -3.567,1.268 -3.637,1.234 -3.727,1.192 -3.779,1.098 -3.824,1.009 -3.979,0.708 -4.133,0.407 -4.288,0.105 c -0.157,-0.306 -0.317,-0.619 -0.386,-0.958 -0.083,-0.405 -0.032,-0.825 0.037,-1.233 0.054,-0.323 0.121,-0.648 0.265,-0.942 0.26,-0.526 0.757,-0.91 1.308,-1.111 0.55,-0.201 1.15,-0.232 1.733,-0.18 0.398,0.035 0.799,0.11 1.156,0.29 0.791,0.398 1.272,1.335 1.136,2.209 -0.034,0.216 -0.101,0.431 -0.078,0.649 0.023,0.212 0.131,0.405 0.236,0.591 0.119,0.212 0.925,1.267 0.294,1.273 C 1.222,0.695 0.944,0.367 0.776,0.271 0.537,0.132 0.277,0.029 0,0" style="fill:#342f8e;fill-opacity:1;fill-rule:nonzero;stroke:none" id="path340" />
        </g>
      </g>
    </g>
    <g id="g342">
      <g id="g344" clip-path="url(#clipPath348)">
        <g id="g350">
          <g id="g352" />
          <g id="g378" mask="url(#mask366)">
            <g id="g380">
              <path d="m 405.013,181.174 h 2.925 l 1.712,7.121 -2.034,0.292 z" style="fill:url(#linearGradient388);stroke:none" id="path390" />
            </g>
          </g>
        </g>
      </g>
    </g>
    <g id="g392">
      <g id="g394" clip-path="url(#clipPath398)">
        <g id="g400">
          <g id="g402" />
          <g id="g428" mask="url(#mask416)">
            <g id="g430">
              <path d="m 386.115,188.587 0.867,-7.413 h 2.856 l -1.689,7.704 z" style="fill:url(#linearGradient438);stroke:none" id="path440" />
            </g>
          </g>
        </g>
      </g>
    </g>
    <g id="g442">
      <g id="g444" clip-path="url(#clipPath448)">
        <g id="g450" transform="translate(389.3115,189.7487)">
          <path d="m 0,0 c 0,-0.963 -0.78,-1.743 -1.743,-1.743 -0.963,0 -1.743,0.78 -1.743,1.743 0,0.963 0.78,1.743 1.743,1.743 C -0.78,1.743 0,0.963 0,0" style="fill:#fbcfd3;fill-opacity:1;fill-rule:nonzero;stroke:none" id="path452" />
        </g>
        <g id="g454" transform="translate(409.6504,189.1676)">
          <path d="m 0,0 c 0,-0.963 -0.78,-1.743 -1.743,-1.743 -0.963,0 -1.743,0.78 -1.743,1.743 0,0.963 0.78,1.743 1.743,1.743 C -0.78,1.743 0,0.963 0,0" style="fill:#fbcfd3;fill-opacity:1;fill-rule:nonzero;stroke:none" id="path456" />
        </g>
        <g id="g458" transform="translate(206.9199,207.9381)">
          <path d="m 0,0 -2.034,20.92 -2.615,22.372 2.034,0.291 4.649,-21.211 7.263,-0.581 7.555,21.501 2.034,-0.29 -5.521,-22.954 0.291,-19.467 z" style="fill:#a5dded;fill-opacity:1;fill-rule:nonzero;stroke:none" id="path460" />
        </g>
        <g id="g462" transform="translate(205.4668,252.3922)">
          <path d="m 0,0 c 0,-0.963 -0.78,-1.743 -1.743,-1.743 -0.963,0 -1.743,0.78 -1.743,1.743 0,0.963 0.78,1.744 1.743,1.744 C -0.78,1.744 0,0.963 0,0" style="fill:#fbcfd3;fill-opacity:1;fill-rule:nonzero;stroke:none" id="path464" />
        </g>
        <g id="g466" transform="translate(225.8057,251.8112)">
          <path d="m 0,0 c 0,-0.963 -0.78,-1.743 -1.743,-1.743 -0.963,0 -1.743,0.78 -1.743,1.743 0,0.963 0.78,1.743 1.743,1.743 C -0.78,1.743 0,0.963 0,0" style="fill:#fbcfd3;fill-opacity:1;fill-rule:nonzero;stroke:none" id="path468" />
        </g>
        <g id="g470" transform="translate(215.939,232.8717)">
          <path d="M 0,0 C 0.017,0.022 0.033,0.045 0.049,0.067 0.161,0.229 0.266,0.392 0.36,0.558 0.372,0.579 0.382,0.601 0.394,0.623 0.471,0.764 0.541,0.904 0.603,1.047 0.622,1.089 0.64,1.131 0.657,1.174 0.723,1.336 0.783,1.499 0.827,1.659 0.964,2.16 0.993,2.665 0.928,3.15 0.886,3.468 0.79,3.771 0.67,4.062 0.43,4.654 0.052,5.186 -0.453,5.591 -0.569,5.684 -0.7,5.758 -0.828,5.837 -0.919,5.894 -1.001,5.96 -1.098,6.01 -1.321,6.122 -1.559,6.215 -1.81,6.283 c -10e-4,0 -0.002,0 -0.002,10e-4 -0.272,0.074 -0.545,0.111 -0.816,0.123 -0.06,0.003 -0.118,-0.005 -0.177,-0.006 -0.22,0 -0.437,-0.014 -0.651,-0.052 C -3.498,6.341 -3.538,6.329 -3.58,6.319 -3.815,6.27 -4.043,6.198 -4.263,6.104 -4.279,6.099 -4.293,6.091 -4.309,6.085 -5.312,5.644 -6.122,4.786 -6.434,3.647 c -0.549,-2.004 0.317,-5.222 2.322,-5.771 0.931,-0.255 1.943,0.114 2.816,0.78 0.001,0.001 0.002,0.001 0.003,0.002 0.331,0.253 0.641,0.546 0.919,0.867 0.011,0.012 0.02,0.025 0.031,0.038 C -0.222,-0.296 -0.107,-0.149 0,0" style="fill:#2e2b7c;fill-opacity:1;fill-rule:nonzero;stroke:none" id="path472" />
        </g>
        <g id="g474" transform="translate(220.5757,208.5192)">
          <path d="m 0,0 -2.016,-32.088 h -2.22 l -1.885,31.827 -1.982,-0.084 -1.212,-32.527 -1.713,0.039 -2.628,32.252 -0.386,3.973 13.994,-0.182 z" style="fill:#2989c4;fill-opacity:1;fill-rule:nonzero;stroke:none" id="path476" />
        </g>
        <g id="g478" transform="translate(218.5601,176.4313)">
          <path d="M 0,0 4.88,-0.537 4.704,-1.294 H -2.444 L -2.22,0 Z" style="fill:#2989c4;fill-opacity:1;fill-rule:nonzero;stroke:none" id="path480" />
        </g>
        <g id="g482" transform="translate(211.2603,175.6471)">
          <path d="m 0,0 v -0.912 l -6.705,-0.253 v 0.838 l 4.993,0.366 z" style="fill:#2989c4;fill-opacity:1;fill-rule:nonzero;stroke:none" id="path484" />
        </g>
        <path d="m 355.738,189.619 h 83.999 v 50 h -83.999 z" style="fill:#ffffff;fill-opacity:1;fill-rule:nonzero;stroke:none" id="path486" />
        <path d="m 397.772,196.178 h 37.473 v 37.123 h -37.473 z" style="fill:#63bddd;fill-opacity:1;fill-rule:nonzero;stroke:none" id="path488" />
        <path d="m 360.494,229.799 h 32.726 v 3.151 h -32.726 z" style="fill:#63bddd;fill-opacity:1;fill-rule:nonzero;stroke:none" id="path490" />
        <path d="m 360.494,222.094 h 32.726 v 3.151 h -32.726 z" style="fill:#63bddd;fill-opacity:1;fill-rule:nonzero;stroke:none" id="path492" />
        <path d="m 360.494,214.389 h 32.726 v 3.152 h -32.726 z" style="fill:#63bddd;fill-opacity:1;fill-rule:nonzero;stroke:none" id="path494" />
        <path d="m 360.494,206.685 h 32.726 v 3.151 h -32.726 z" style="fill:#63bddd;fill-opacity:1;fill-rule:nonzero;stroke:none" id="path496" />
        <path d="m 360.494,198.98 h 32.726 v 3.152 h -32.726 z" style="fill:#63bddd;fill-opacity:1;fill-rule:nonzero;stroke:none" id="path498" />
        <g id="g500">
          <g id="g502" />
          <g id="g514">
            <g clip-path="url(#clipPath506)" opacity="0.259995" id="g512">
              <g transform="translate(174.9756,195.0651)" id="g510">
                <path d="m 0,0 c 0,-3.477 -20.386,-6.295 -45.533,-6.295 -25.147,0 -45.532,2.818 -45.532,6.295 0,3.478 20.385,6.296 45.532,6.296 C -20.386,6.296 0,3.478 0,0" style="fill:#298ab1;fill-opacity:1;fill-rule:nonzero;stroke:none" id="path508" />
              </g>
            </g>
          </g>
        </g>
        <g id="g516">
          <g id="g518" />
          <g id="g534">
            <g clip-path="url(#clipPath522)" opacity="0.199997" id="g532">
              <g transform="translate(295.3486,329.3234)" id="g526">
                <path d="m 0,0 c 0.373,-0.295 0.771,-0.59 1.227,-0.703 -0.002,-0.123 -0.019,-0.244 -0.01,-0.37 0.174,-2.318 2.294,-5.382 4.613,-5.208 0.167,0.012 0.329,0.046 0.488,0.09 h 0.001 c 0.627,0.172 1.191,0.575 1.671,1.112 0.014,0.017 0.03,0.032 0.044,0.048 0.076,0.088 0.149,0.18 0.22,0.274 0.023,0.031 0.048,0.061 0.071,0.092 0.064,0.088 0.124,0.179 0.184,0.271 0.028,0.042 0.055,0.084 0.082,0.127 0.054,0.088 0.105,0.177 0.155,0.268 0.029,0.052 0.057,0.103 0.085,0.156 0.044,0.087 0.088,0.174 0.129,0.263 0.029,0.06 0.056,0.121 0.082,0.182 0.037,0.085 0.073,0.169 0.106,0.255 0.027,0.068 0.052,0.137 0.077,0.206 0.028,0.082 0.057,0.162 0.083,0.244 0.024,0.076 0.046,0.151 0.067,0.228 0.021,0.076 0.043,0.153 0.063,0.23 0.02,0.082 0.036,0.164 0.054,0.246 0.014,0.071 0.03,0.143 0.043,0.214 0.015,0.088 0.026,0.176 0.037,0.263 0.009,0.065 0.019,0.129 0.026,0.193 0.009,0.098 0.013,0.194 0.018,0.29 0.002,0.052 0.008,0.105 0.008,0.156 10e-4,0.059 -0.002,0.115 -0.003,0.172 0.309,-0.137 0.649,-0.216 1.008,-0.216 1.381,0 2.5,1.12 2.5,2.5 0,1.381 -1.119,2.5 -2.5,2.5 C 9.512,4.083 8.577,3.345 8.256,2.333 8.223,2.365 8.196,2.403 8.161,2.434 7.957,2.609 7.735,2.765 7.501,2.899 7.032,3.168 6.507,3.348 5.953,3.418 5.675,3.454 5.39,3.462 5.1,3.44 3.421,3.314 2.058,2.214 1.493,0.739 1.15,0.775 0.807,0.811 0.461,0.818 0.137,0.825 -0.304,0.702 -0.276,0.378 -0.262,0.218 -0.126,0.1 0,0" style="fill:#2989c4;fill-opacity:1;fill-rule:nonzero;stroke:none" id="path524" />
              </g>
              <g transform="translate(282.3594,331.0963)" id="g530">
                <path d="m 0,0 2.041,-2.081 c -0.753,0.547 -1.458,1.077 -2.088,1.568 z m 55.56,-35.269 -13.409,-0.609 -9.216,15.026 0.195,0.128 -10.436,11.209 -2.282,0.247 -13.917,6.89 -5.012,4.559 -1.425,-1.56 2.897,31.353 -41.716,3.856 c 0.161,0.378 0.25,0.794 0.25,1.231 0,1.567 -1.148,2.856 -2.648,3.098 v 63.235 h -1 V 40.159 c -1.5,-0.242 -2.649,-1.531 -2.649,-3.098 0,-0.234 0.03,-0.46 0.079,-0.68 l -36.046,3.331 -3.988,-43.149 83.73,-7.738 0.657,7.098 c 2.796,-2.602 6.412,-5.55 8.253,-6.35 l 6.799,-2.953 7.827,-13.943 -0.051,-0.033 0.125,-0.099 0.078,-0.137 0.053,0.035 0.253,-0.197 2.197,-18.926 2.666,-16.667 -5,-0.667 0.392,-1.401 h 7.295 l -0.706,18.823 1.238,12.523 9.076,-7.091 14.89,3.413 1.443,-3.776 1.167,0.5 z" style="fill:#2989c4;fill-opacity:1;fill-rule:nonzero;stroke:none" id="path528" />
              </g>
            </g>
          </g>
        </g>
        <g id="g536" transform="translate(177.5947,327.6593)">
          <path d="M 0,0 83.73,-7.738 87.719,35.411 3.988,43.149 Z" style="fill:#a5dded;fill-opacity:1;fill-rule:nonzero;stroke:none" id="path538" />
        </g>
        <g id="g540" transform="translate(263.8413,333.277)">
          <path d="m 0,0 5.011,-4.559 16.519,-8.177 -7.266,-1.849 -10.935,7.499 -5.076,5.174 z" style="fill:#4fabc4;fill-opacity:1;fill-rule:nonzero;stroke:none" id="path542" />
        </g>
        <g id="g544" transform="translate(284.9604,328.8805)">
          <path d="m 0,0 c 0.174,-2.318 -1.465,-5.664 -3.784,-5.838 -2.318,-0.174 -4.438,2.89 -4.612,5.208 -0.174,2.318 1.564,4.339 3.883,4.513 C -2.195,4.057 -0.174,2.318 0,0" style="fill:#fbcfd3;fill-opacity:1;fill-rule:nonzero;stroke:none" id="path546" />
        </g>
        <g id="g548" transform="translate(260.3086,334.1246)">
          <path d="m 0,0 c -0.019,-0.002 -0.716,0.359 -0.716,0.359 l -0.674,-1.105 -3.422,1.92 -1.136,-1.264 4.827,-3.647 1.051,1.32 -0.547,0.746 0.224,0.817 z" style="fill:#fbcfd3;fill-opacity:1;fill-rule:nonzero;stroke:none" id="path550" />
        </g>
        <g id="g552" transform="translate(294.2803,305.9166)">
          <path d="m 0,0 -2.118,-21.412 0.706,-18.823 h -7.294 l -0.392,1.401 5,0.667 -2.667,16.667 -2.405,20.727 z" style="fill:#2e2b7c;fill-opacity:1;fill-rule:nonzero;stroke:none" id="path554" />
        </g>
        <g id="g556" transform="translate(260.3057,332.2491)">
          <path d="m 0,0 c 2.12,-1.982 9.691,-7.449 12.477,-8.264 l 5.832,-1.707 6.438,-0.696 10.435,-11.21 -10.475,-6.869 -7.979,14.213 -6.798,2.953 c -2.795,1.214 -9.685,7.379 -11.579,9.766 z" style="fill:#63bddd;fill-opacity:1;fill-rule:nonzero;stroke:none" id="path558" />
        </g>
        <g id="g560" transform="translate(277.1626,330.0372)">
          <path d="m 0,0 c -0.449,0.06 -0.901,0.094 -1.354,0.104 -0.325,0.007 -0.766,-0.116 -0.737,-0.439 0.014,-0.161 0.15,-0.279 0.276,-0.379 0.421,-0.334 0.872,-0.682 1.406,-0.748 0.45,-0.056 0.922,0.111 1.237,0.437 0.284,0.293 0.483,0.733 0.33,1.106 C 0.777,-0.034 0.397,-0.052 0,0" style="fill:#fbcfd3;fill-opacity:1;fill-rule:nonzero;stroke:none" id="path562" />
        </g>
        <g id="g564" transform="translate(119.8105,213.5797)">
          <path d="m 0,0 h 17.333 c 0.397,0 0.757,0.235 0.917,0.6 0.159,0.364 0.087,0.788 -0.183,1.08 L 1.4,19.679 -0.067,18.32 15.044,2 H 0 Z" style="fill:#2989c4;fill-opacity:1;fill-rule:nonzero;stroke:none" id="path566" />
        </g>
        <g id="g568" transform="translate(281.6655,323.132)">
          <path d="M 0,0 C 2.055,0.565 3.456,3.597 3.295,5.749 3.121,8.067 1.1,9.806 -1.218,9.632 -1.358,9.621 -1.488,9.583 -1.623,9.56 -1.718,9.217 -1.749,8.854 -1.69,8.554 -1.461,7.389 -0.603,6.321 0.475,5.821 0.475,5.821 0.468,0.677 0,0" style="fill:#2e2b7c;fill-opacity:1;fill-rule:nonzero;stroke:none" id="path570" />
        </g>
        <g id="g572" transform="translate(282.708,328.4816)">
          <path d="m 0,0 c 0.349,0.002 0.691,-0.134 0.971,-0.342 0.903,-0.671 0.352,-2.09 -0.577,-2.432 -0.3,-0.11 -0.625,-0.139 -0.945,-0.124 -0.277,0.012 -0.567,0.062 -0.781,0.238 -0.206,0.171 -0.313,0.442 -0.327,0.709 -0.014,0.268 0.055,0.534 0.148,0.784 C -1.297,-0.594 -0.632,-0.004 0,0" style="fill:#fbcfd3;fill-opacity:1;fill-rule:nonzero;stroke:none" id="path574" />
        </g>
        <g id="g576" transform="translate(317.918,295.8278)">
          <path d="m 0,0 -13.409,-0.609 -9.345,15.237 -10.354,-6.716 17.667,-13.804 14.891,3.413 1.442,-3.776 1.167,0.5 z" style="fill:#2989c4;fill-opacity:1;fill-rule:nonzero;stroke:none" id="path578" />
        </g>
        <g id="g580" transform="translate(288.4766,330.9064)">
          <path d="M 0,0 C 0,-1.38 -1.119,-2.5 -2.5,-2.5 -3.881,-2.5 -5,-1.38 -5,0 -5,1.381 -3.881,2.5 -2.5,2.5 -1.119,2.5 0,1.381 0,0" style="fill:#2e2b7c;fill-opacity:1;fill-rule:nonzero;stroke:none" id="path582" />
        </g>
        <path d="M 136.483,418.155 H 120.917 V 207.486 h 15.566 z m -17.566,2 h 19.566 V 205.486 h -19.566 z" style="fill:#2989c4;fill-opacity:1;fill-rule:nonzero;stroke:none" id="path584" />
        <path d="m 116.239,198.153 h 24.923 v 17.859 h -24.923 z" style="fill:#ffffff;fill-opacity:1;fill-rule:nonzero;stroke:none" id="path586" />
        <g id="g588" transform="translate(119.8105,287.4908)">
          <path d="m 0,0 h 17.333 c 0.397,0 0.757,0.235 0.917,0.6 0.159,0.364 0.087,0.788 -0.183,1.08 L 1.4,19.678 -0.067,18.32 15.044,2 H 0 Z" style="fill:#2989c4;fill-opacity:1;fill-rule:nonzero;stroke:none" id="path590" />
        </g>
        <g id="g592" transform="translate(119.8105,269.0123)">
          <path d="m 0,0 h 17.333 c 0.397,0 0.757,0.235 0.917,0.6 0.159,0.364 0.087,0.788 -0.183,1.08 L 1.4,19.679 -0.067,18.32 15.044,2 H 0 Z" style="fill:#2989c4;fill-opacity:1;fill-rule:nonzero;stroke:none" id="path594" />
        </g>
        <g id="g596" transform="translate(119.8105,250.5348)">
          <path d="m 0,0 h 17.333 c 0.397,0 0.757,0.235 0.917,0.6 0.159,0.364 0.087,0.788 -0.183,1.08 L 1.4,19.679 -0.067,18.32 15.044,2 H 0 Z" style="fill:#2989c4;fill-opacity:1;fill-rule:nonzero;stroke:none" id="path598" />
        </g>
        <g id="g600" transform="translate(119.8105,232.0573)">
          <path d="m 0,0 h 17.333 c 0.397,0 0.757,0.235 0.917,0.6 0.159,0.364 0.087,0.788 -0.183,1.08 L 1.4,19.679 -0.067,18.32 15.044,2 H 0 Z" style="fill:#2989c4;fill-opacity:1;fill-rule:nonzero;stroke:none" id="path602" />
        </g>
        <g id="g604" transform="translate(119.8105,305.524)">
          <path d="m 0,0 h 17.333 c 0.397,0 0.757,0.235 0.917,0.6 0.159,0.364 0.087,0.788 -0.183,1.079 L 1.4,19.679 -0.067,18.321 15.044,2 H 0 Z" style="fill:#2989c4;fill-opacity:1;fill-rule:nonzero;stroke:none" id="path606" />
        </g>
        <g id="g608" transform="translate(119.8105,323.5582)">
          <path d="m 0,0 h 17.333 c 0.397,0 0.757,0.235 0.917,0.6 0.159,0.364 0.087,0.788 -0.183,1.079 L 1.4,19.679 -0.067,18.321 15.044,2 H 0 Z" style="fill:#2989c4;fill-opacity:1;fill-rule:nonzero;stroke:none" id="path610" />
        </g>
        <g id="g612" transform="translate(119.8105,341.5919)">
          <path d="m 0,0 h 17.333 c 0.397,0 0.757,0.235 0.917,0.6 0.159,0.364 0.087,0.788 -0.183,1.079 L 1.4,19.679 -0.067,18.321 15.044,2 H 0 Z" style="fill:#2989c4;fill-opacity:1;fill-rule:nonzero;stroke:none" id="path614" />
        </g>
        <g id="g616" transform="translate(119.8105,359.6261)">
          <path d="m 0,0 h 17.333 c 0.397,0 0.757,0.235 0.917,0.6 0.159,0.364 0.087,0.788 -0.183,1.079 L 1.4,19.679 -0.067,18.321 15.044,2 H 0 Z" style="fill:#2989c4;fill-opacity:1;fill-rule:nonzero;stroke:none" id="path618" />
        </g>
        <g id="g620" transform="translate(119.8105,377.6603)">
          <path d="m 0,0 h 17.333 c 0.397,0 0.757,0.235 0.917,0.6 0.159,0.364 0.087,0.788 -0.183,1.079 L 1.4,19.679 -0.067,18.321 15.044,2 H 0 Z" style="fill:#2989c4;fill-opacity:1;fill-rule:nonzero;stroke:none" id="path622" />
        </g>
        <g id="g624" transform="translate(119.8105,395.6945)">
          <path d="m 0,0 h 17.333 c 0.397,0 0.757,0.235 0.917,0.6 0.159,0.364 0.087,0.788 -0.183,1.079 L 1.4,19.679 -0.067,18.321 15.044,2 H 0 Z" style="fill:#2989c4;fill-opacity:1;fill-rule:nonzero;stroke:none" id="path626" />
        </g>
        <g id="g628" transform="translate(119.8105,413.7281)">
          <path d="m 0,0 h 17.333 c 0.397,0 0.757,0.235 0.917,0.6 0.159,0.364 0.087,0.788 -0.183,1.079 L 1.4,19.679 -0.067,18.321 15.044,2 H 0 Z" style="fill:#2989c4;fill-opacity:1;fill-rule:nonzero;stroke:none" id="path630" />
        </g>
        <path d="m 118.95,413.37 h 31.719 v 26.74 H 118.95 Z" style="fill:#63bddd;fill-opacity:1;fill-rule:nonzero;stroke:none" id="path632" />
        <path d="m 71.284,424.751 h 31.719 V 440.11 H 71.284 Z" style="fill:#63bddd;fill-opacity:1;fill-rule:nonzero;stroke:none" id="path634" />
        <g id="g636" transform="translate(71.8105,438.1569)">
          <path d="m 0,0 h 156.667 c 0.552,0 1,0.448 1,1 0,0.552 -0.448,1 -1,1 H 0 C -0.552,2 -1,1.552 -1,1 -1,0.448 -0.552,0 0,0" style="fill:#2989c4;fill-opacity:1;fill-rule:nonzero;stroke:none" id="path638" />
        </g>
        <path d="m 220.199,369.49 h 1 v 65 h -1 z" style="fill:#2989c4;fill-opacity:1;fill-rule:nonzero;stroke:none" id="path640" />
        <path d="m 107.738,193.486 h 41.924 v 7.859 h -41.924 z" style="fill:#2989c4;fill-opacity:1;fill-rule:nonzero;stroke:none" id="path642" />
        <g id="g644" transform="translate(134.6934,438.4186)">
          <path d="M 0,0 C 0.128,0 0.256,0.049 0.354,0.146 L 8.707,8.5 h 76.586 l 7.853,-7.854 c 0.196,-0.195 0.512,-0.195 0.708,0 0.195,0.196 0.195,0.512 0,0.708 L 85.707,9.5 H 8.293 L -0.354,0.854 C -0.549,0.658 -0.549,0.342 -0.354,0.146 -0.256,0.049 -0.128,0 0,0" style="fill:#2989c4;fill-opacity:1;fill-rule:nonzero;stroke:none" id="path646" />
        </g>
        <g id="g648" transform="translate(71.1431,438.4186)">
          <path d="m 0,0 c 0.18,0 0.354,0.098 0.443,0.268 l 8.36,15.97 H 29.077 L 36.938,0.773 c 0.125,-0.245 0.427,-0.342 0.672,-0.219 0.246,0.125 0.345,0.426 0.22,0.673 L 29.69,17.238 H 8.198 L -0.442,0.732 C -0.571,0.487 -0.476,0.185 -0.231,0.057 -0.157,0.018 -0.078,0 0,0" style="fill:#2989c4;fill-opacity:1;fill-rule:nonzero;stroke:none" id="path650" />
        </g>
        <g id="g652" transform="translate(217.0327,434.4904)">
          <path d="m 0,0 c 0,-2.025 1.642,-3.667 3.667,-3.667 2.024,0 3.666,1.642 3.666,3.667 0,2.025 -1.642,3.667 -3.666,3.667 C 1.642,3.667 0,2.025 0,0" style="fill:#ffffff;fill-opacity:1;fill-rule:nonzero;stroke:none" id="path654" />
        </g>
        <g id="g656" transform="translate(199.02,446.9259)">
          <path d="M 0,0 C 0.214,0 0.413,0.139 0.478,0.354 0.559,0.618 0.41,0.898 0.146,0.978 L -73.887,23.552 C -74,23.585 -74.121,23.58 -74.228,23.534 L -109.316,8.725 c -0.255,-0.107 -0.374,-0.4 -0.267,-0.655 0.108,-0.255 0.401,-0.374 0.655,-0.266 l 34.922,14.738 73.86,-22.52 C -0.097,0.007 -0.048,0 0,0" style="fill:#2989c4;fill-opacity:1;fill-rule:nonzero;stroke:none" id="path658" />
        </g>
        <g id="g660" transform="translate(136.6343,438.3517)">
          <path d="m 0,0 c 0.118,0 0.238,0.021 0.355,0.066 0.517,0.196 0.776,0.773 0.58,1.29 L -10.723,32.03 c -0.157,0.416 -0.568,0.678 -1.016,0.641 -0.444,-0.036 -0.811,-0.362 -0.899,-0.799 L -18.664,1.956 c -0.109,-0.541 0.242,-1.069 0.783,-1.178 0.54,-0.106 1.069,0.242 1.178,0.783 l 5.342,26.52 L -0.935,0.645 C -0.783,0.246 -0.403,0 0,0" style="fill:#2989c4;fill-opacity:1;fill-rule:nonzero;stroke:none" id="path662" />
        </g>
        <g id="g664" transform="translate(122.9619,470.027)">
          <path d="M 0,0 C 0,-1.113 0.902,-2.016 2.015,-2.016 3.128,-2.016 4.03,-1.113 4.03,0 4.03,1.113 3.128,2.015 2.015,2.015 0.902,2.015 0,1.113 0,0" style="fill:#becae7;fill-opacity:1;fill-rule:nonzero;stroke:none" id="path666" />
        </g>
        <g id="g668" transform="translate(209.561,438.3234)">
          <path d="m 0,0 c 0.11,0 0.221,0.036 0.314,0.111 l 9.819,7.937 V 0.627 c 0,-0.276 0.224,-0.5 0.5,-0.5 0.277,0 0.5,0.224 0.5,0.5 v 8.468 c 0,0.193 -0.111,0.368 -0.284,0.451 -0.173,0.084 -0.38,0.06 -0.53,-0.062 L -0.315,0.889 C -0.53,0.715 -0.563,0.4 -0.389,0.186 -0.291,0.063 -0.146,0 0,0" style="fill:#2989c4;fill-opacity:1;fill-rule:nonzero;stroke:none" id="path670" />
        </g>
        <g id="g672" transform="translate(200.0654,438.3234)">
          <path d="m 0,0 c 0.11,0 0.221,0.036 0.314,0.111 l 9.82,7.937 V 0.627 c 0,-0.276 0.223,-0.5 0.5,-0.5 0.276,0 0.5,0.224 0.5,0.5 v 8.468 c 0,0.193 -0.111,0.368 -0.285,0.451 -0.172,0.084 -0.379,0.06 -0.53,-0.062 L -0.315,0.889 C -0.53,0.715 -0.563,0.4 -0.389,0.186 -0.291,0.063 -0.146,0 0,0" style="fill:#2989c4;fill-opacity:1;fill-rule:nonzero;stroke:none" id="path674" />
        </g>
        <g id="g676" transform="translate(190.5698,438.3234)">
          <path d="m 0,0 c 0.11,0 0.221,0.036 0.314,0.111 l 9.82,7.937 V 0.627 c 0,-0.276 0.223,-0.5 0.5,-0.5 0.276,0 0.5,0.224 0.5,0.5 v 8.468 c 0,0.193 -0.111,0.368 -0.285,0.451 -0.172,0.084 -0.379,0.06 -0.53,-0.062 L -0.315,0.889 C -0.53,0.715 -0.563,0.4 -0.389,0.186 -0.291,0.063 -0.146,0 0,0" style="fill:#2989c4;fill-opacity:1;fill-rule:nonzero;stroke:none" id="path678" />
        </g>
        <g id="g680" transform="translate(181.0747,438.3234)">
          <path d="m 0,0 c 0.11,0 0.221,0.036 0.314,0.111 l 9.819,7.937 V 0.627 c 0,-0.276 0.224,-0.5 0.5,-0.5 0.277,0 0.5,0.224 0.5,0.5 v 8.468 c 0,0.193 -0.111,0.368 -0.284,0.451 -0.173,0.084 -0.379,0.06 -0.53,-0.062 L -0.315,0.889 C -0.53,0.715 -0.563,0.4 -0.389,0.186 -0.291,0.063 -0.146,0 0,0" style="fill:#2989c4;fill-opacity:1;fill-rule:nonzero;stroke:none" id="path682" />
        </g>
        <g id="g684" transform="translate(171.5791,438.3234)">
          <path d="m 0,0 c 0.11,0 0.221,0.036 0.314,0.111 l 9.82,7.937 V 0.627 c 0,-0.276 0.223,-0.5 0.5,-0.5 0.276,0 0.5,0.224 0.5,0.5 v 8.468 c 0,0.193 -0.111,0.368 -0.285,0.451 -0.173,0.084 -0.379,0.06 -0.53,-0.062 L -0.315,0.889 C -0.53,0.715 -0.563,0.4 -0.389,0.186 -0.291,0.063 -0.146,0 0,0" style="fill:#2989c4;fill-opacity:1;fill-rule:nonzero;stroke:none" id="path686" />
        </g>
        <g id="g688" transform="translate(162.0835,438.3234)">
          <path d="m 0,0 c 0.11,0 0.221,0.036 0.314,0.111 l 9.82,7.937 V 0.627 c 0,-0.276 0.223,-0.5 0.5,-0.5 0.276,0 0.5,0.224 0.5,0.5 v 8.468 c 0,0.193 -0.111,0.368 -0.285,0.451 -0.172,0.084 -0.379,0.06 -0.53,-0.062 L -0.315,0.889 C -0.53,0.715 -0.563,0.4 -0.389,0.186 -0.291,0.063 -0.146,0 0,0" style="fill:#2989c4;fill-opacity:1;fill-rule:nonzero;stroke:none" id="path690" />
        </g>
        <g id="g692" transform="translate(152.5884,438.3234)">
          <path d="m 0,0 c 0.11,0 0.221,0.036 0.314,0.111 l 9.82,7.937 V 0.627 c 0,-0.276 0.223,-0.5 0.5,-0.5 0.276,0 0.5,0.224 0.5,0.5 v 8.468 c 0,0.193 -0.111,0.368 -0.285,0.451 -0.172,0.084 -0.379,0.06 -0.53,-0.062 L -0.315,0.889 C -0.53,0.715 -0.563,0.4 -0.389,0.186 -0.291,0.063 -0.146,0 0,0" style="fill:#2989c4;fill-opacity:1;fill-rule:nonzero;stroke:none" id="path694" />
        </g>
        <g id="g696" transform="translate(143.0928,438.3234)">
          <path d="m 0,0 c 0.11,0 0.221,0.036 0.314,0.111 l 9.82,7.937 V 0.627 c 0,-0.276 0.223,-0.5 0.5,-0.5 0.276,0 0.5,0.224 0.5,0.5 v 8.468 c 0,0.193 -0.111,0.368 -0.285,0.451 -0.173,0.084 -0.38,0.06 -0.53,-0.062 L -0.315,0.889 C -0.53,0.715 -0.563,0.4 -0.389,0.186 -0.291,0.063 -0.146,0 0,0" style="fill:#2989c4;fill-opacity:1;fill-rule:nonzero;stroke:none" id="path698" />
        </g>
        <g id="g700" transform="translate(86.958,438.3234)">
          <path d="M 0,0 C 0.142,0 0.283,0.06 0.382,0.177 L 13.135,15.228 V 0.627 c 0,-0.276 0.224,-0.5 0.5,-0.5 0.277,0 0.5,0.224 0.5,0.5 v 15.964 c 0,0.21 -0.131,0.398 -0.327,0.47 -0.198,0.073 -0.418,0.014 -0.554,-0.146 L -0.381,0.823 C -0.56,0.613 -0.533,0.297 -0.323,0.119 -0.229,0.039 -0.114,0 0,0" style="fill:#2989c4;fill-opacity:1;fill-rule:nonzero;stroke:none" id="path702" />
        </g>
        <g id="g704" transform="translate(77.1494,438.3234)">
          <path d="m 0,0 c 0.162,0 0.321,0.079 0.417,0.224 l 9.718,14.704 V 0.627 c 0,-0.276 0.223,-0.5 0.5,-0.5 0.276,0 0.5,0.224 0.5,0.5 v 15.964 c 0,0.221 -0.145,0.416 -0.356,0.479 -0.214,0.062 -0.44,-0.019 -0.561,-0.203 L -0.417,0.776 C -0.569,0.545 -0.505,0.235 -0.275,0.083 -0.19,0.027 -0.095,0 0,0" style="fill:#2989c4;fill-opacity:1;fill-rule:nonzero;stroke:none" id="path706" />
        </g>
        <g id="g708" transform="translate(217.5508,368.1569)">
          <path d="m 0,0 c 0,-1.739 1.41,-3.148 3.148,-3.148 1.739,0 3.149,1.409 3.149,3.148 0,1.739 -1.41,3.148 -3.149,3.148 C 1.41,3.148 0,1.739 0,0" style="fill:#2989c4;fill-opacity:1;fill-rule:nonzero;stroke:none" id="path710" />
        </g>
        <g id="g712" transform="translate(477.3486,288.2516)">
          <path d="m 0,0 -0.803,11.086 1.24,8.16 4.211,24.046 -2.034,0.291 -4.648,-21.21 -7.264,-0.581 -7.555,21.5 -2.034,-0.29 5.521,-22.954 1.937,-8.774 -0.227,-10.693 z" style="fill:#ffffff;fill-opacity:1;fill-rule:nonzero;stroke:none" id="path714" />
        </g>
        <g id="g716" transform="translate(467.1924,316.1583)">
          <path d="m 0,0 c 0,-2.079 1.685,-4.953 3.764,-4.953 2.079,0 3.763,2.874 3.763,4.953 0,2.079 -1.684,3.764 -3.763,3.764 C 1.685,3.764 0,2.079 0,0" style="fill:#fbcfd3;fill-opacity:1;fill-rule:nonzero;stroke:none" id="path718" />
        </g>
        <g id="g720">
          <g id="g722" />
          <g id="g734">
            <g clip-path="url(#clipPath726)" opacity="0.259995" id="g732">
              <g transform="translate(490.2627,256.0406)" id="g730">
                <path d="m 0,0 c 0,-1.638 -9.604,-2.966 -21.451,-2.966 -11.847,0 -21.45,1.328 -21.45,2.966 0,1.639 9.603,2.966 21.45,2.966 C -9.604,2.966 0,1.639 0,0" style="fill:#298ab1;fill-opacity:1;fill-rule:nonzero;stroke:none" id="path728" />
              </g>
            </g>
          </g>
        </g>
        <g id="g736" transform="translate(472.541,315.6442)">
          <path d="M 0,0 C 0.21,0.263 0.544,0.448 0.878,0.402 0.955,0.391 1.031,0.369 1.099,0.33 1.283,0.225 1.386,0.016 1.424,-0.192 1.528,-0.766 1.196,-1.364 0.703,-1.677 0.563,-1.766 0.409,-1.837 0.244,-1.856 0.079,-1.876 -0.096,-1.839 -0.224,-1.733 -0.694,-1.344 -0.302,-0.378 0,0" style="fill:#fbcfd3;fill-opacity:1;fill-rule:nonzero;stroke:none" id="path738" />
        </g>
        <g id="g740" transform="translate(472.5381,315.8536)">
          <path d="M 0,0 C 0.085,-0.041 0.184,-0.08 0.271,-0.046 0.359,-0.011 0.405,0.083 0.463,0.158 0.689,0.453 1.185,0.452 1.448,0.19 1.712,-0.071 1.738,-0.518 1.556,-0.841 1.373,-1.165 1.016,-1.367 0.648,-1.421 0.406,-2.284 0.307,-3.187 0.354,-4.081 0.953,-4.125 1.552,-4.169 2.15,-4.213 c 0.117,-0.009 0.245,-0.014 0.337,0.057 0.086,0.067 0.117,0.182 0.14,0.29 0.224,1.026 0.335,2.077 0.333,3.128 C 2.958,0.285 2.836,1.347 2.308,2.223 1.675,3.273 -0.92,5 -2.187,4.032 -3.581,2.965 -0.966,0.464 0,0" style="fill:#2e2b7c;fill-opacity:1;fill-rule:nonzero;stroke:none" id="path742" />
        </g>
        <g id="g744" transform="translate(469.3633,317.3873)">
          <path d="m 0,0 c -0.569,-0.861 -1.39,-1.601 -2.388,-1.861 -0.288,1.116 -0.038,2.359 0.66,3.276 0.393,0.516 1.813,1.775 2.569,1.48 C 1.623,2.588 0.385,0.583 0,0" style="fill:#2e2b7c;fill-opacity:1;fill-rule:nonzero;stroke:none" id="path746" />
        </g>
        <g id="g748" transform="translate(476.9238,296.1149)">
          <path d="m 0,0 -11.112,0.52 -8.549,-38.289 -3.966,2.415 4.828,-5.864 11.383,31.561 -0.173,-14.315 7.718,-10.226 0.493,-3.691 0.204,-1.569 1.376,0.163 0.25,5.625 -5.974,9.715 4.215,16.081 z" style="fill:#63bddd;fill-opacity:1;fill-rule:nonzero;stroke:none" id="path750" />
        </g>
        <g id="g752" transform="translate(477.626,321.1705)">
          <path d="m 0,0 2.406,-0.844 1.965,11.218 -2.034,0.29 z" style="fill:#fbcfd3;fill-opacity:1;fill-rule:nonzero;stroke:none" id="path754" />
        </g>
        <g id="g756" transform="translate(463.6152,322.6661)">
          <path d="m 0,0 -2.82,-1.113 -2.333,9.7 2.034,0.291 z" style="fill:#fbcfd3;fill-opacity:1;fill-rule:nonzero;stroke:none" id="path758" />
        </g>
        <g id="g760" transform="translate(473.041,310.4425)">
          <path d="m 0,0 -2.085,-3.703 -1.05,3.452 z" style="fill:#fbcfd3;fill-opacity:1;fill-rule:nonzero;stroke:none" id="path762" />
        </g>
        <g id="g764" transform="translate(457.5518,332.7062)">
          <path d="m 0,0 c 0,-0.962 0.781,-1.743 1.744,-1.743 0.962,0 1.743,0.781 1.743,1.743 0,0.963 -0.781,1.744 -1.743,1.744 C 0.781,1.744 0,0.963 0,0" style="fill:#fbcfd3;fill-opacity:1;fill-rule:nonzero;stroke:none" id="path766" />
        </g>
        <g id="g768" transform="translate(479.4375,332.3805)">
          <path d="m 0,0 c 0,-0.963 0.78,-1.743 1.743,-1.743 0.963,0 1.743,0.78 1.743,1.743 0,0.963 -0.78,1.743 -1.743,1.743 C 0.78,1.743 0,0.963 0,0" style="fill:#fbcfd3;fill-opacity:1;fill-rule:nonzero;stroke:none" id="path770" />
        </g>
      </g>
    </g>
    <g id="g772">
      <g id="g774" clip-path="url(#clipPath778)">
        <g id="g780">
          <g id="g782" />
          <g id="g808" mask="url(#mask796)">
            <g id="g810">
              <path d="m 462.099,280.003 c 1.588,-0.849 3.139,-1.646 4.279,-2.225 v 0 l 2.683,7.442 0.251,2.364 -3.501,9.051 z" style="fill:url(#linearGradient818);stroke:none" id="path820" />
            </g>
          </g>
        </g>
      </g>
    </g>
    <g id="g822">
      <g id="g824" clip-path="url(#clipPath828)">
        <g id="g830" transform="translate(350.4365,405.2213)">
          <path d="m 0,0 h -52.36 c -1.799,0 -3.271,1.472 -3.271,3.272 v 2.314 c 0,1.799 1.472,3.272 3.271,3.272 H 0 c 1.8,0 3.272,-1.473 3.272,-3.272 V 3.272 C 3.272,1.472 1.8,0 0,0" style="fill:#ffffff;fill-opacity:1;fill-rule:nonzero;stroke:none" id="path832" />
        </g>
        <g id="g834">
          <g id="g836" />
          <g id="g848">
            <g clip-path="url(#clipPath840)" opacity="0.259995" id="g846">
              <g transform="translate(84.8711,145.4352)" id="g844">
                <path d="m 0,0 122.154,-5.959 39.822,17.036 -15.993,0.479 z" style="fill:#298ab1;fill-opacity:1;fill-rule:nonzero;stroke:none" id="path842" />
              </g>
            </g>
          </g>
        </g>
        <g id="g850">
          <g id="g852" />
          <g id="g864">
            <g clip-path="url(#clipPath856)" opacity="0.259995" id="g862">
              <g transform="translate(105.6675,115.5084)" id="g860">
                <path d="m 0,0 122.154,-5.958 39.822,17.035 -15.993,0.48 z" style="fill:#298ab1;fill-opacity:1;fill-rule:nonzero;stroke:none" id="path858" />
              </g>
            </g>
          </g>
        </g>
        <g id="g866">
          <g id="g868" />
          <g id="g880">
            <g clip-path="url(#clipPath872)" opacity="0.259995" id="g878">
              <g transform="translate(238.2627,174.7057)" id="g876">
                <path d="m 0,0 c 0,-1.638 -9.604,-2.966 -21.451,-2.966 -11.847,0 -21.451,1.328 -21.451,2.966 0,1.638 9.604,2.966 21.451,2.966 C -9.604,2.966 0,1.638 0,0" style="fill:#298ab1;fill-opacity:1;fill-rule:nonzero;stroke:none" id="path874" />
              </g>
            </g>
          </g>
        </g>
        <g id="g882">
          <g id="g884" />
          <g id="g896">
            <g clip-path="url(#clipPath888)" opacity="0.259995" id="g894">
              <g transform="translate(261.2129,126.7057)" id="g892">
                <path d="m 0,0 c 0,-1.638 9.604,-2.966 21.451,-2.966 11.847,0 21.451,1.328 21.451,2.966 0,1.638 -9.604,2.966 -21.451,2.966 C 9.604,2.966 0,1.638 0,0" style="fill:#298ab1;fill-opacity:1;fill-rule:nonzero;stroke:none" id="path890" />
              </g>
            </g>
          </g>
        </g>
        <g id="g898" transform="translate(84.9111,148.4352)">
          <path d="m 0,0 -0.04,-3 119.99,-1.596 25.993,13.152 0.04,3 z" style="fill:#2989c4;fill-opacity:1;fill-rule:nonzero;stroke:none" id="path900" />
        </g>
        <g id="g902" transform="translate(204.8608,143.8395)">
          <path d="m 0,0 -119.99,1.596 25.994,13.151 119.99,-1.596 z" style="fill:#2989c4;fill-opacity:1;fill-rule:nonzero;stroke:none" id="path904" />
        </g>
        <g id="g906" transform="translate(204.9004,146.8395)">
          <path d="m 0,0 -119.989,1.596 25.993,13.151 119.99,-1.596 z" style="fill:#ffffff;fill-opacity:1;fill-rule:nonzero;stroke:none" id="path908" />
        </g>
        <g id="g910" transform="translate(177.0303,158.3971)">
          <path d="m 0,0 -65.931,0.876 1.966,0.995 65.93,-0.877 z" style="fill:#a5dded;fill-opacity:1;fill-rule:nonzero;stroke:none" id="path912" />
        </g>
        <g id="g914" transform="translate(172.1162,155.9108)">
          <path d="M 0,0 -65.931,0.877 -63.965,1.871 1.966,0.994 Z" style="fill:#a5dded;fill-opacity:1;fill-rule:nonzero;stroke:none" id="path916" />
        </g>
        <g id="g918" transform="translate(167.3989,153.524)">
          <path d="M 0,0 -65.931,0.877 -63.965,1.871 1.966,0.994 Z" style="fill:#a5dded;fill-opacity:1;fill-rule:nonzero;stroke:none" id="path920" />
        </g>
        <g id="g922" transform="translate(162.8784,151.2369)">
          <path d="M 0,0 -65.931,0.876 -63.965,1.871 1.966,0.994 Z" style="fill:#a5dded;fill-opacity:1;fill-rule:nonzero;stroke:none" id="path924" />
        </g>
        <g id="g926" transform="translate(204.8115,148.7399)">
          <path d="m 0,0 -42.643,0.567 19.851,10.044 42.644,-0.567 z" style="fill:#a5dded;fill-opacity:1;fill-rule:nonzero;stroke:none" id="path928" />
        </g>
        <g id="g930" transform="translate(105.3071,119.1295)">
          <path d="m 0,0 -0.04,-3 119.989,-1.596 25.994,13.153 0.04,2.999 z" style="fill:#2989c4;fill-opacity:1;fill-rule:nonzero;stroke:none" id="path932" />
        </g>
        <g id="g934" transform="translate(225.2563,114.5338)">
          <path d="m 0,0 -119.989,1.596 25.993,13.151 119.99,-1.595 z" style="fill:#2989c4;fill-opacity:1;fill-rule:nonzero;stroke:none" id="path936" />
        </g>
        <g id="g938" transform="translate(225.2964,117.5338)">
          <path d="m 0,0 -119.989,1.596 25.993,13.151 119.99,-1.596 z" style="fill:#ffffff;fill-opacity:1;fill-rule:nonzero;stroke:none" id="path940" />
        </g>
        <g id="g942" transform="translate(197.4258,129.0914)">
          <path d="M 0,0 -65.931,0.876 -63.965,1.871 1.966,0.994 Z" style="fill:#2989c4;fill-opacity:1;fill-rule:nonzero;stroke:none" id="path944" />
        </g>
        <g id="g946" transform="translate(192.5122,126.6051)">
          <path d="m 0,0 -65.931,0.877 1.966,0.994 65.93,-0.877 z" style="fill:#2989c4;fill-opacity:1;fill-rule:nonzero;stroke:none" id="path948" />
        </g>
        <g id="g950" transform="translate(187.7949,124.2184)">
          <path d="M 0,0 -65.931,0.877 -63.965,1.871 1.966,0.994 Z" style="fill:#2989c4;fill-opacity:1;fill-rule:nonzero;stroke:none" id="path952" />
        </g>
        <g id="g954" transform="translate(183.2744,121.9313)">
          <path d="m 0,0 -65.931,0.877 1.966,0.994 65.93,-0.877 z" style="fill:#2989c4;fill-opacity:1;fill-rule:nonzero;stroke:none" id="path956" />
        </g>
        <g id="g958" transform="translate(225.2075,119.4342)">
          <path d="m 0,0 -42.644,0.567 19.852,10.044 42.644,-0.567 z" style="fill:#2989c4;fill-opacity:1;fill-rule:nonzero;stroke:none" id="path960" />
        </g>
        <path d="m 368.812,380.74 h -75 v 8 h 75 z" style="fill:#a5dded;fill-opacity:1;fill-rule:nonzero;stroke:none" id="path962" />
        <path d="m 368.812,340.127 h -75 v 33.613 h 75 z" style="fill:#a5dded;fill-opacity:1;fill-rule:nonzero;stroke:none" id="path964" />
        <g id="g966" transform="translate(277.0151,163.2623)">
          <path d="m 0,0 3.451,-5.398 3.356,-10.349 10.166,-16.332 -1.554,-0.424 -12.108,13.539 -5.91,11.427 z" style="fill:#63bddd;fill-opacity:1;fill-rule:nonzero;stroke:none" id="path968" />
        </g>
        <g id="g970" transform="translate(256.0942,155.9713)">
          <path d="m 0,0 -12.926,-21.548 1.68,-0.599 15.607,19.928 z" style="fill:#342f8e;fill-opacity:1;fill-rule:nonzero;stroke:none" id="path972" />
        </g>
      </g>
    </g>
    <g id="g974">
      <g id="g976" clip-path="url(#clipPath980)">
        <g id="g982">
          <g id="g984" />
          <g id="g1010" mask="url(#mask998)">
            <g id="g1012">
              <path d="m 276.651,157.472 c -0.107,-0.322 -0.661,-1.96 -1.238,-3.674 v 0 l 3.542,-6.85 1.792,10.049 -0.281,0.867 -2.219,3.472 -0.435,0.083 c 0,0 -0.929,-3.249 -1.161,-3.947" style="fill:url(#linearGradient1020);stroke:none" id="path1022" />
            </g>
          </g>
        </g>
      </g>
    </g>
    <g id="g1024">
      <g id="g1026" clip-path="url(#clipPath1030)">
        <g id="g1032" transform="translate(250.7485,160.6959)">
          <path d="M 0,0 C 2.294,-0.378 5.16,-2.759 4.783,-5.053 4.406,-7.347 0.928,-8.686 -1.366,-8.309 -3.66,-7.932 -5.214,-5.766 -4.837,-3.472 -4.46,-1.178 -2.294,0.377 0,0" style="fill:#fbcfd3;fill-opacity:1;fill-rule:nonzero;stroke:none" id="path1034" />
        </g>
        <g id="g1036" transform="translate(247.7871,153.3893)">
          <path d="m 0,0 c -0.163,-0.422 -0.304,-0.854 -0.42,-1.291 -0.083,-0.313 -0.067,-0.772 0.254,-0.82 0.159,-0.024 0.306,0.081 0.432,0.179 0.425,0.33 0.869,0.687 1.059,1.191 C 1.484,-0.317 1.434,0.181 1.192,0.563 0.974,0.908 0.593,1.205 0.194,1.145 0.217,0.748 0.145,0.374 0,0" style="fill:#fbcfd3;fill-opacity:1;fill-rule:nonzero;stroke:none" id="path1038" />
        </g>
        <g id="g1040" transform="translate(255.5591,156.1393)">
          <path d="M 0,0 C -0.065,2.131 -2.682,4.206 -4.811,4.557 -7.105,4.934 -9.271,3.379 -9.647,1.085 -9.67,0.946 -9.664,0.812 -9.673,0.674 c 0.311,-0.172 0.656,-0.288 0.961,-0.301 1.187,-0.053 2.427,0.53 3.167,1.46 0,0 4.997,-1.219 5.545,-1.833" style="fill:#342f8e;fill-opacity:1;fill-rule:nonzero;stroke:none" id="path1042" />
        </g>
        <g id="g1044" transform="translate(250.606,158.4127)">
          <path d="M 0,0 C 0.08,0.34 0.292,0.64 0.561,0.863 1.426,1.582 2.675,0.713 2.788,-0.271 2.825,-0.589 2.776,-0.911 2.687,-1.219 2.609,-1.484 2.493,-1.755 2.271,-1.921 2.057,-2.081 1.768,-2.121 1.504,-2.072 1.241,-2.022 0.999,-1.894 0.777,-1.743 0.271,-1.401 -0.146,-0.615 0,0" style="fill:#fbcfd3;fill-opacity:1;fill-rule:nonzero;stroke:none" id="path1046" />
        </g>
        <g id="g1048" transform="translate(255.1055,144.9508)">
          <path d="M 0,0 -8.053,-13.986 -6.216,-14.128 4.097,-3.673 5.51,9.749 c 0,0 0,4.097 -1.837,3.814 C 1.836,13.28 0.989,11.021 0.989,11.021 Z" style="fill:#2989c4;fill-opacity:1;fill-rule:nonzero;stroke:none" id="path1050" />
        </g>
        <g id="g1052" transform="translate(255.3281,158.3824)">
          <path d="M 0,0 C 8.319,4.118 17.789,5.4 17.789,5.4 L 22.322,-3.464 1.896,-6.791 Z" style="fill:#2989c4;fill-opacity:1;fill-rule:nonzero;stroke:none" id="path1054" />
        </g>
        <g id="g1056" transform="translate(273.1167,163.7828)">
          <path d="M 0,0 1.269,0.043 C 4.693,0.161 7.532,-2.586 7.527,-6.013 L 0.776,-18.226 2.006,-35.785 H 0.169 l -4.007,16.581 z" style="fill:#63bddd;fill-opacity:1;fill-rule:nonzero;stroke:none" id="path1058" />
        </g>
        <g id="g1060" transform="translate(245.5288,132.8151)">
          <path d="m 0,0 c 0,-1.191 -0.922,-2.158 -2.06,-2.158 -1.137,0 -2.06,0.967 -2.06,2.158 0,1.192 0.923,2.158 2.06,2.158 C -0.922,2.158 0,1.192 0,0" style="fill:#fbcfd3;fill-opacity:1;fill-rule:nonzero;stroke:none" id="path1062" />
        </g>
        <g id="g1064" transform="translate(250.2109,130.6539)">
          <path d="m 0,0 c 0,-1.191 -0.922,-2.157 -2.06,-2.157 -1.137,0 -2.06,0.966 -2.06,2.157 0,1.192 0.923,2.158 2.06,2.158 C -0.922,2.158 0,1.192 0,0" style="fill:#fbcfd3;fill-opacity:1;fill-rule:nonzero;stroke:none" id="path1066" />
        </g>
        <g id="g1068" transform="translate(275.123,127.9977)">
          <path d="M 0,0 0.338,-1.744 -8.488,-1.94 c 0,0 0.49,1.274 0.785,1.176 C -7.409,-0.862 -1.837,0 -1.837,0 Z" style="fill:#2989c4;fill-opacity:1;fill-rule:nonzero;stroke:none" id="path1070" />
        </g>
        <g id="g1072" transform="translate(293.9883,131.1832)">
          <path d="m 0,0 0.867,-1.952 -7.966,-0.197 0.196,0.98 5.349,0.745 z" style="fill:#2989c4;fill-opacity:1;fill-rule:nonzero;stroke:none" id="path1074" />
        </g>
      </g>
    </g>
    <text transform="matrix(1,0,0,-1,144.2676,65.3916)" style="font-variant:normal;font-weight:normal;font-stretch:normal;font-size:50px;font-family:'Bw Modelica SS01 Light';-inkscape-font-specification:BwModelicaSS01-Light;writing-mode:lr-tb;fill:#2b3054;fill-opacity:1;fill-rule:nonzero;stroke:none" id="text1078">
      <tspan x="0 34.349998 68.349998 116.5 148.8 167.75 200.05 236.2 252.95 289.10001 323.14999 338.45001 365.64999 384.60001 420.75 435.10001 469.70001 504.20001 540.34998 554.70001" y="0" sodipodi:role="line" id="tspan1076">Powered by Trainopia</tspan>
    </text>
    <text transform="matrix(1,0,0,-1,157.2676,467.2916)" style="font-variant:normal;font-weight:bold;font-stretch:normal;font-size:50px;font-family:'Courier New';-inkscape-font-specification:CourierNewPS-BoldMT;writing-mode:lr-tb;fill:#3cba8d;fill-opacity:1;fill-rule:nonzero;stroke:none" id="text1082">
      <tspan x="0 33.150002 66.300003 99.449997 132.60001 165.75 198.89999 232.05 265.20001 298.35001 331.5 364.64999 397.79999 430.95001 464.10001 497.25" y="0" sodipodi:role="line" id="tspan1080">CODE YOUR FUTURE</tspan>
    </text>
    <g id="g1084">
      <g id="g1086" clip-path="url(#clipPath1090)">
        <g id="g1092" transform="translate(195.5337,322.8331)">
          <path d="m 0,0 -62.415,-39.067 c -3.25,-2.029 -7.57,-1.037 -9.599,2.207 l -4.593,7.342 c -2.036,3.244 -1.037,7.564 2.207,9.6 l 51.689,32.349 10.605,-6.636 7.64,-4.784 c 0.127,-0.076 0.242,-0.152 0.369,-0.216 h 0.006 C -2.806,0.095 -1.374,-0.153 0,0" style="fill:#3cba8d;fill-opacity:1;fill-rule:nonzero;stroke:none" id="path1094" />
        </g>
        <g id="g1096" transform="translate(204.936,335.2892)">
          <path d="M 0,0 C 0,-1.056 -0.14,-2.08 -0.401,-3.054 -1.011,-5.35 -2.303,-7.36 -4.04,-8.868 l -0.006,-0.007 c 0,-0.012 0,-0.012 -0.006,-0.012 l -2.526,-1.686 -2.824,-1.883 c -1.374,-0.153 -2.806,0.095 -4.091,0.795 H -13.5 c -0.126,0.064 -0.241,0.14 -0.368,0.216 l -7.641,4.784 -10.605,6.636 -51.688,32.355 c -3.244,2.036 -4.243,6.356 -2.208,9.6 l 4.593,7.335 c 2.03,3.251 6.35,4.243 9.6,2.214 L -9.396,12.405 -5.674,10.077 -4.109,8.938 V 8.932 C -2.315,7.398 -0.992,5.325 -0.375,2.971 -0.133,2.023 0,1.024 0,0" style="fill:#3cba8d;fill-opacity:1;fill-rule:nonzero;stroke:none" id="path1098" />
        </g>
        <g id="g1100" transform="translate(127.2729,244.8102)">
          <path d="m 0,0 62.414,-39.067 c 3.251,-2.03 7.57,-1.037 9.6,2.208 l 4.593,7.34 c 2.036,3.245 1.037,7.565 -2.208,9.6 L 22.711,12.431 12.106,5.795 4.466,1.012 C 4.338,0.935 4.224,0.858 4.097,0.795 H 4.09 C 2.805,0.095 1.374,-0.153 0,0" style="fill:#278ab1;fill-opacity:1;fill-rule:nonzero;stroke:none" id="path1102" />
        </g>
        <g id="g1104" transform="translate(117.8701,257.2662)">
          <path d="M 0,0 C 0,-1.057 0.14,-2.08 0.401,-3.054 1.012,-5.351 2.303,-7.36 4.04,-8.868 l 0.006,-0.007 c 0,-0.013 0,-0.013 0.006,-0.013 l 2.526,-1.685 2.825,-1.883 c 1.374,-0.153 2.805,0.095 4.09,0.795 H 13.5 c 0.127,0.063 0.241,0.14 0.369,0.217 l 7.64,4.783 10.605,6.636 51.688,32.355 c 3.245,2.035 4.243,6.356 2.208,9.6 l -4.593,7.335 c -2.03,3.251 -6.349,4.243 -9.6,2.214 L 9.396,12.405 5.675,10.077 4.11,8.938 V 8.932 C 2.316,7.398 0.993,5.324 0.375,2.971 0.134,2.022 0,1.024 0,0" style="fill:#278ab1;fill-opacity:1;fill-rule:nonzero;stroke:none" id="path1106" />
        </g>
      </g>
    </g>
    <g id="g1108">
      <g id="g1110" clip-path="url(#clipPath1114)">
        <g id="g1116" transform="translate(249.4238,346.0133)">
          <path d="m 0,0 v -23.646 h 62.668 c 2.747,0 4.995,-2.247 4.995,-4.993 V -39.03 c 0,-2.747 -2.248,-4.994 -4.995,-4.994 h -83.035 v 55.769 c 0,2.56 1.366,4.926 3.583,6.207 L -7.946,23.056 0,27.646 25.353,42.28 c 1.296,0.749 2.768,1.143 4.265,1.143 h 33.05 c 2.747,0 4.995,-2.247 4.995,-4.994 V 28.05 c 0,-2.747 -2.248,-4.994 -4.995,-4.994 H 35.252 c -1.6,0 -3.171,-0.421 -4.556,-1.221 L 3.567,6.178 C 1.36,4.904 0,2.549 0,0" style="fill:#278ab1;fill-opacity:1;fill-rule:nonzero;stroke:none" id="path1118" />
        </g>
        <g id="g1120" transform="translate(500.6592,346.0094)">
          <path d="m 0,0 v -23.646 h -62.668 c -2.747,0 -4.994,-2.247 -4.994,-4.993 V -39.03 c 0,-2.746 2.247,-4.993 4.994,-4.993 h 74.962 c 4.459,0 8.073,3.614 8.073,8.072 v 47.696 c 0,2.56 -1.366,4.927 -3.583,6.207 L 7.946,23.056 0,27.646 -25.353,42.28 c -1.296,0.749 -2.767,1.143 -4.265,1.143 h -33.05 c -2.747,0 -4.994,-2.247 -4.994,-4.994 V 28.05 c 0,-2.747 2.247,-4.994 4.994,-4.994 h 27.416 c 1.6,0 3.171,-0.421 4.557,-1.221 L -3.567,6.179 C -1.359,4.904 0,2.549 0,0" style="fill:#278ab1;fill-opacity:1;fill-rule:nonzero;stroke:none" id="path1122" />
        </g>
        <g id="g1124" transform="translate(576.1865,354.7975)">
          <path d="m 0,0 c -2.745,0 -4.994,-2.249 -4.994,-4.994 v -10.379 c 0,-2.745 2.249,-4.994 4.994,-4.994 h 16.538 c 2.756,0 5.005,2.249 5.005,4.994 V -4.994 C 21.543,-2.249 19.294,0 16.538,0 Z" style="fill:#278ab1;fill-opacity:1;fill-rule:nonzero;stroke:none" id="path1126" />
        </g>
        <g id="g1128" transform="translate(623.6719,374.0573)">
          <path d="m 0,0 v 10.379 c 0,2.745 -2.249,4.994 -4.993,4.994 h -78.043 c -2.744,0 -4.993,-2.249 -4.993,-4.994 v -78.26 c 0,-2.744 2.249,-4.994 4.993,-4.994 h 78.043 c 2.744,0 4.993,2.25 4.993,4.994 v 10.38 c 0,2.756 -2.249,5.005 -4.993,5.005 H -67.651 V -4.994 H -4.993 C -2.249,-4.994 0,-2.745 0,0" style="fill:#278ab1;fill-opacity:1;fill-rule:nonzero;stroke:none" id="path1130" />
        </g>
        <g id="g1132" transform="translate(356.7051,368.8683)">
          <path d="m 0,0 h 36.917 c 2.862,0 5.184,-2.342 5.184,-5.232 v -36.083 c 0,-2.89 -2.322,-5.232 -5.184,-5.232 H 0 c -2.863,0 -5.184,2.342 -5.184,5.232 V -5.232 C -5.184,-2.342 -2.863,0 0,0 m 53.431,20.568 h -69.957 c -4.97,0 -9.036,-4.104 -9.036,-9.12 v -69.431 c 0,-5.017 4.066,-9.12 9.036,-9.12 h 69.957 c 4.97,0 9.036,4.103 9.036,9.12 v 69.431 c 0,5.016 -4.066,9.12 -9.036,9.12" style="fill:#278ab1;fill-opacity:1;fill-rule:nonzero;stroke:none" id="path1134" />
        </g>
      </g>
    </g>
    <g id="g1136">
      <g id="g1138" clip-path="url(#clipPath1142)">
        <g id="g1144" transform="translate(577.1338,256.4508)">
          <path d="m 0,0 c -3.268,0 -5.941,-2.673 -5.941,-5.94 v -8.486 c 0,-3.267 2.673,-5.94 5.941,-5.94 h 15.591 c 2.756,0 5.005,2.249 5.005,4.993 v 10.38 C 20.596,-2.248 18.347,0 15.591,0 Z" style="fill:#3cba8d;fill-opacity:1;fill-rule:nonzero;stroke:none" id="path1146" />
        </g>
        <g id="g1148" transform="translate(689.8359,215.9821)">
          <path d="m 0,0 v -9.767 c 0,-1.861 -1.525,-3.376 -3.376,-3.376 h -144.877 c -3.264,0 -5.943,2.669 -5.943,5.933 v 76.374 c 0,3.264 2.679,5.943 5.943,5.943 h 76.15 c 3.263,0 5.944,-2.679 5.944,-5.943 v -8.488 c 0,-3.263 -2.681,-5.944 -5.944,-5.944 h -60.765 c -0.528,0 -0.943,-0.425 -0.943,-0.941 V 8.175 c 0,-0.516 0.415,-0.943 0.943,-0.943 H -7.233 C -3.241,7.232 0,3.992 0,0" style="fill:#3cba8d;fill-opacity:1;fill-rule:nonzero;stroke:none" id="path1150" />
        </g>
        <g id="g1152" transform="translate(723.9111,284.5221)">
          <path d="m 0,0 c 0.146,-24.431 0.145,-50.425 -0.001,-74.863 -0.027,-4.563 -2.629,-5.882 -6.379,-6.468 -2.118,-0.331 -5.608,-0.127 -7.8,-0.011 -3.878,0.206 -6.037,2.529 -6.397,6.37 -0.201,2.148 0.071,5.568 -0.05,7.719 -0.145,2.623 -1.207,4.547 -3.477,5.893 -11.952,7.084 -32.551,18.75 -42.38,24.53 -9.829,5.781 -11.27,6.288 -18.199,10.577 -3.309,2.05 -3.213,2.895 -3.434,5.912 -0.478,6.484 -0.145,14.113 -0.066,20.375 0.055,4.275 2.583,6.011 6.365,6.447 2.136,0.248 5.593,0.164 7.801,0.005 3.908,-0.281 5.989,-2.434 6.411,-6.397 0.258,-2.434 -0.25,-5.885 0.079,-8.518 0.328,-2.633 0.729,-4.259 3.421,-5.837 14.164,-8.305 29.11,-16.816 43.47,-25.134 0.16,12.902 -0.185,26.802 0.102,39.404 0.102,4.468 2.599,5.978 6.365,6.454 2.127,0.269 5.689,0.301 7.796,-0.001 C -2.644,5.921 -0.027,4.562 0,0" style="fill:#3cba8d;fill-opacity:1;fill-rule:nonzero;stroke:none" id="path1154" />
        </g>
        <g id="g1156" transform="translate(463.2451,224.0768)">
          <path d="m 0,0 h -8.66 v 61.136 c 0,2.948 -2.413,5.361 -5.361,5.361 h -9.972 c -2.949,0 -5.362,-2.413 -5.362,-5.361 v -76.141 c 0,-2.949 2.413,-5.361 5.362,-5.361 h 6.865 3.107 H 0 c 3.776,0 6.857,2.248 6.857,4.993 v 10.38 C 6.857,-2.249 3.776,0 0,0" style="fill:#3cba8d;fill-opacity:1;fill-rule:nonzero;stroke:none" id="path1158" />
        </g>
        <g id="g1160" transform="translate(515.1904,224.0768)">
          <path d="m 0,0 h -9.779 v 61.136 c 0,2.948 -2.413,5.361 -5.363,5.361 h -9.971 c -2.949,0 -5.362,-2.413 -5.362,-5.361 v -76.141 c 0,-2.949 2.413,-5.361 5.362,-5.361 h 6.866 3.105 H 0 c 3.776,0 5.737,2.248 5.737,4.993 v 10.38 C 5.737,-2.249 3.776,0 0,0" style="fill:#3cba8d;fill-opacity:1;fill-rule:nonzero;stroke:none" id="path1162" />
        </g>
        <g id="g1164" transform="translate(384.8589,246.4742)">
          <path d="m 0,0 c 2.747,0 4.987,-2.241 4.987,-4.976 v -10.342 c 0,-2.735 -2.24,-4.976 -4.987,-4.976 h -16.479 c -2.734,0 -4.976,2.241 -4.976,4.976 v 10.342 c 0,2.735 2.242,4.976 4.976,4.976 z" style="fill:#3eba8d;fill-opacity:1;fill-rule:nonzero;stroke:none" id="path1166" />
        </g>
        <g id="g1168" transform="translate(419.1724,284.0573)">
          <path d="m 0,0 v -73.83 c 0,-3.503 -2.863,-6.36 -6.36,-6.36 h -7.904 c -3.497,0 -6.354,2.857 -6.354,6.36 v 1.138 c -0.064,0.407 -0.093,0.831 -0.093,1.254 v 54.613 c 0,1.37 -1.109,2.479 -2.48,2.479 H -34.47 c -2.039,0 -4.037,-0.534 -5.797,-1.55 l -20.641,-11.918 c -3.589,-2.068 -5.796,-5.895 -5.796,-10.037 v -36.067 c 0,-0.081 0,-0.156 -0.006,-0.238 -0.174,-3.351 -2.962,-6.034 -6.348,-6.034 h -7.905 c -3.496,0 -6.36,2.857 -6.36,6.36 v 46.469 c 0,5.018 2.678,9.659 7.028,12.168 l 1.469,0.847 12.122,6.999 20.328,11.738 c 2.131,1.231 4.559,1.881 7.022,1.881 h 24.056 c 0.337,0.059 0.679,0.087 1.034,0.087 H -6.36 C -2.863,6.359 0,3.496 0,0" style="fill:#3eba8d;fill-opacity:1;fill-rule:nonzero;stroke:none" id="path1170" />
        </g>
        <g id="g1172" transform="translate(317.084,284.0084)">
          <path d="m 0,0 v -74.097 c 0,-3.508 -2.868,-6.382 -6.377,-6.382 h -7.933 c -0.944,0 -1.842,0.209 -2.652,0.583 l -0.985,0.565 -49.382,28.515 -20.698,11.949 V 0 c 0,3.515 2.873,6.383 6.382,6.383 h 7.933 c 3.509,0 6.383,-2.868 6.383,-6.383 v -26.924 l 46.637,-26.923 V 0 c 0,3.515 2.873,6.383 6.382,6.383 h 7.933 C -2.868,6.383 0,3.515 0,0" style="fill:#3cba8d;fill-opacity:1;fill-rule:nonzero;stroke:none" id="path1174" />
        </g>
      </g>
    </g>
  </g>
</svg>
